<?xml version="1.0" standalone="no"?>
<!DOCTYPE svg PUBLIC "-//W3C//DTD SVG 20010904//EN"
 "http://www.w3.org/TR/2001/REC-SVG-20010904/DTD/svg10.dtd">
<svg version="1.0" xmlns="http://www.w3.org/2000/svg"
 width="457.000000pt" height="450.000000pt" viewBox="0 0 457.000000 450.000000"
 preserveAspectRatio="xMidYMid meet">

<g transform="translate(0.000000,450.000000) scale(0.100000,-0.100000)"
fill="#000000" stroke="none">
<path d="M1573 4255 c-20 -20 -43 -35 -52 -34 -54 5 -76 -3 -111 -40 -20 -21
-47 -44 -58 -50 -12 -6 -29 -26 -38 -43 l-16 -31 -91 5 -92 5 -80 -93 c-51
-60 -87 -93 -100 -94 -12 0 -102 7 -200 15 -229 20 -264 13 -302 -58 -16 -29
-17 -69 -14 -490 l3 -458 -63 6 c-35 3 -78 8 -96 11 -25 4 -34 0 -42 -15 -15
-27 -15 -475 0 -502 10 -19 17 -20 103 -13 l94 7 4 -209 c3 -191 5 -213 26
-254 12 -26 35 -54 53 -64 33 -19 72 -19 292 1 l67 6 0 -59 c0 -64 -5 -77 -33
-87 -13 -5 -23 2 -38 28 l-21 35 -39 -20 c-42 -22 -45 -27 -28 -63 8 -18 8
-30 0 -46 -10 -18 -18 -20 -50 -15 -37 6 -37 5 -50 -36 -13 -44 -6 -59 26 -60
12 0 33 -30 33 -48 0 -5 -11 -15 -25 -22 -31 -17 -32 -37 -2 -74 23 -28 23
-28 56 -12 43 23 64 8 55 -39 -5 -28 -3 -33 18 -38 41 -12 58 -7 69 17 15 32
46 40 62 15 15 -24 38 -24 67 -1 18 14 20 22 11 43 -12 33 2 49 40 49 32 0 35
3 44 52 6 31 4 37 -14 43 -27 8 -27 33 0 61 19 21 20 24 5 52 -20 40 -31 45
-57 32 -27 -15 -51 13 -44 52 4 24 0 30 -31 43 -33 14 -35 17 -32 57 l3 43
505 41 c278 23 516 44 528 48 13 4 27 19 33 33 5 13 9 109 9 212 l0 188 36 6
c20 3 54 15 77 25 23 11 58 23 77 26 19 4 47 18 62 33 l27 26 121 -79 c66 -43
120 -82 120 -85 0 -3 -6 -14 -14 -25 -14 -18 -19 -16 -121 54 -101 69 -125 81
-125 65 1 -18 239 -173 265 -173 27 0 58 33 53 57 -2 10 -65 59 -148 115 -164
110 -160 103 -152 233 6 105 -21 179 -88 245 -43 44 -134 90 -175 90 -13 0
-15 24 -15 145 l0 145 49 0 49 0 32 -102 c43 -140 49 -148 108 -148 49 0 84
17 101 48 8 15 -2 71 -21 122 -4 8 -9 36 -12 62 l-5 47 42 6 c55 8 126 -14
194 -61 31 -21 59 -34 68 -30 54 20 60 224 10 391 -48 164 -126 305 -168 305
-8 0 -48 -34 -88 -76 -41 -42 -101 -97 -133 -122 -58 -44 -202 -132 -218 -132
-5 0 -8 33 -8 74 0 64 -3 79 -22 100 -22 24 -32 26 -236 42 -192 15 -237 15
-220 -2 3 -3 95 -12 204 -20 110 -9 209 -19 222 -24 20 -9 22 -16 22 -96 0
-81 -2 -88 -30 -120 -59 -67 -59 -151 1 -218 l29 -34 0 -150 0 -149 -37 -7
c-21 -3 -48 -9 -60 -12 l-23 -6 -2 268 c-2 175 -6 267 -13 264 -6 -3 -9 -102
-7 -275 l2 -270 -31 -20 c-17 -11 -46 -39 -64 -63 -101 -130 -82 -313 45 -424
l51 -45 -3 -74 -3 -74 -545 -37 c-299 -20 -545 -36 -546 -35 -1 1 -4 49 -6
107 l-3 105 64 7 c35 4 69 12 75 18 7 7 11 78 11 205 0 160 -3 197 -15 209
-10 10 -58 18 -150 26 -74 6 -141 13 -147 15 -10 3 -13 110 -13 489 0 427 2
486 16 500 8 9 25 14 37 11 50 -10 837 -68 844 -62 3 4 4 9 2 12 -3 2 -98 12
-212 22 -114 9 -206 20 -205 25 2 4 32 41 66 83 63 74 64 75 111 75 91 0 136
-11 147 -34 20 -45 64 -55 274 -58 178 -3 198 -1 227 16 73 44 81 130 16 171
-18 11 -32 28 -33 38 0 28 -27 73 -56 96 -20 16 -41 21 -81 21 -50 0 -59 -4
-90 -35z m61 -137 c8 -13 8 -23 -2 -38 -6 -11 -12 -31 -12 -45 0 -16 -6 -25
-15 -25 -10 0 -15 10 -15 29 0 17 -4 33 -10 36 -11 7 -13 48 -3 59 12 12 45 2
57 -16z m798 -235 c9 -10 31 -49 51 -88 78 -158 122 -371 98 -479 -14 -65 -29
-71 -64 -23 -25 34 -77 122 -77 131 0 3 20 17 44 31 l44 26 -24 75 c-13 41
-24 86 -24 99 0 25 -1 25 -56 19 l-56 -7 4 104 c2 57 7 110 11 117 11 17 31
15 49 -5z m-86 -151 c1 -149 17 -203 122 -415 2 -5 -11 -1 -29 9 -25 14 -57
19 -118 20 -96 1 -95 0 -143 102 -23 47 -31 81 -35 140 l-5 77 74 57 c40 31
86 70 102 87 17 17 30 31 30 31 1 0 1 -48 2 -108z m-202 -269 c9 -28 35 -76
56 -107 48 -68 53 -116 18 -148 l-23 -19 33 5 c27 5 32 2 32 -14 0 -10 -9 -22
-21 -25 -20 -7 -21 -32 0 -28 6 2 17 4 23 5 7 2 14 -7 16 -19 5 -36 -78 -68
-116 -44 -17 10 -82 228 -75 248 5 12 1 14 -13 9 -15 -4 -30 4 -56 31 -50 53
-58 73 -58 147 l0 65 65 32 c36 18 69 37 73 43 4 6 12 -20 18 -59 5 -38 18
-93 28 -122z m316 168 c0 -11 8 -46 19 -80 l19 -60 -34 -21 -35 -20 -10 28
c-16 39 -39 124 -39 144 0 17 17 25 58 27 15 1 22 -5 22 -18z m-399 -756 c111
-78 125 -251 27 -342 -43 -40 -116 -66 -169 -60 -146 18 -235 146 -194 280 19
63 46 97 105 132 39 22 54 25 117 23 61 -3 78 -8 114 -33z m-1303 -87 c16 -14
17 -294 1 -304 -15 -9 -426 -37 -445 -30 -11 4 -14 39 -14 185 0 114 4 181 10
183 22 7 436 -25 448 -34z m1452 -268 c-7 -17 -21 -35 -31 -40 -29 -16 -34
-11 -12 13 11 12 26 33 33 45 17 34 25 19 10 -18z m-309 -130 l29 0 0 -199 c0
-147 -3 -201 -12 -208 -7 -6 -321 -35 -698 -67 -644 -53 -686 -56 -697 -39
-10 12 -13 81 -13 264 l0 247 31 6 c17 3 51 6 75 6 l44 0 0 -110 c0 -93 3
-112 16 -117 15 -6 1125 65 1132 72 2 2 6 39 9 83 6 80 6 80 30 71 13 -5 38
-9 54 -9z m-1125 -671 c14 -28 19 -30 47 -25 29 6 51 24 59 48 2 5 12 6 21 2
14 -5 17 -13 12 -32 -5 -19 0 -32 21 -53 23 -24 29 -26 51 -16 19 9 26 8 34
-4 14 -22 11 -37 -11 -49 -28 -15 -28 -70 1 -77 15 -4 19 -12 17 -32 -2 -21
-8 -25 -26 -23 -37 5 -65 -26 -57 -65 7 -39 -18 -57 -39 -28 -20 27 -82 13
-90 -21 -10 -36 -40 -28 -44 12 -2 17 -14 41 -27 54 -22 21 -24 21 -49 5 -21
-14 -29 -15 -41 -5 -22 18 -18 35 10 50 22 12 25 19 19 44 -6 30 -14 40 -49
61 -29 17 -8 45 34 45 30 0 40 5 54 29 14 25 15 34 5 56 -11 24 -10 29 7 41
24 18 22 19 41 -17z"/>
<path d="M1980 2705 l0 -105 25 0 25 0 0 105 0 105 -25 0 -25 0 0 -105z"/>
<path d="M1887 2753 c-4 -3 -7 -39 -7 -80 l0 -73 30 0 30 0 0 80 c0 77 -1 80
-23 80 -13 0 -27 -3 -30 -7z"/>
<path d="M1790 2645 c0 -43 1 -45 30 -45 29 0 30 2 30 45 0 43 -1 45 -30 45
-29 0 -30 -2 -30 -45z"/>
<path d="M310 2641 c0 -94 3 -171 8 -173 4 -2 103 3 220 10 l212 15 0 143 c0
79 -3 144 -7 144 -5 0 -100 7 -213 15 -113 8 -208 15 -212 15 -5 0 -8 -76 -8
-169z m265 43 c30 -20 55 -42 55 -48 0 -9 -73 -57 -112 -74 -5 -2 -8 33 -8 77
0 45 2 81 5 81 3 0 30 -16 60 -36z"/>
<path d="M810 1646 c-41 -13 -80 -66 -80 -108 0 -64 49 -118 108 -118 76 0
129 59 119 133 -10 72 -79 115 -147 93z"/>
<path d="M377 4011 c-89 -95 -167 -261 -167 -358 0 -45 18 -22 30 40 25 127
101 264 190 340 35 30 42 47 20 47 -4 0 -37 -31 -73 -69z"/>
<path d="M662 3807 c-16 -19 8 -50 34 -45 28 5 26 52 -2 56 -11 2 -26 -3 -32
-11z"/>
<path d="M802 3808 c-30 -30 9 -69 44 -43 15 11 17 17 8 32 -14 23 -36 27 -52
11z"/>
<path d="M944 3796 c-10 -26 4 -48 28 -44 17 2 23 10 23 28 0 18 -6 26 -23 28
-13 2 -25 -3 -28 -12z"/>
<path d="M636 3712 c-15 -14 0 -342 15 -342 5 0 9 72 9 160 l0 160 34 0 c132
0 962 -60 1070 -77 30 -5 38 -3 34 8 -3 9 -27 16 -64 21 -140 15 -448 39 -689
53 -143 8 -292 16 -332 19 -39 2 -74 2 -77 -2z"/>
<path d="M3550 3710 c-41 -4 -153 -8 -247 -9 -221 -1 -213 5 -213 -155 0 -79
4 -117 13 -123 6 -6 64 -18 127 -27 160 -24 154 -22 178 -72 12 -25 26 -43 30
-40 5 3 17 23 27 46 l18 41 79 -2 c57 -1 83 2 93 12 11 11 15 51 16 162 1 146
-6 180 -35 175 -6 -1 -45 -4 -86 -8z m-355 -105 c0 -23 -4 -30 -20 -30 -21 0
-31 25 -21 51 11 28 41 12 41 -21z m329 -6 c13 -5 -29 -6 -104 -2 -69 3 -134
10 -145 15 -12 5 31 6 104 2 69 -3 134 -10 145 -15z m-330 -85 c7 -17 -10 -54
-24 -54 -14 0 -31 37 -24 54 3 9 14 16 24 16 10 0 21 -7 24 -16z m291 -26 c13
-5 -5 -7 -50 -3 -38 3 -92 5 -118 5 -32 0 -46 4 -42 11 8 12 177 2 210 -13z"/>
<path d="M975 3518 c-37 -13 -38 -14 -31 -26 4 -6 23 -5 51 3 25 8 45 12 45
11 0 -2 -11 -28 -25 -58 -14 -29 -25 -61 -25 -70 0 -9 -4 -20 -10 -23 -9 -6
-68 7 -118 26 l-25 10 33 34 c35 36 36 54 2 36 -51 -27 -111 -142 -112 -214 0
-59 15 -54 23 8 4 24 13 60 21 79 l14 35 69 -21 c37 -11 73 -22 78 -23 6 -1 9
-28 7 -64 l-4 -61 -84 0 c-109 0 -110 -18 -1 -22 l82 -3 6 -50 c3 -27 5 -52 3
-54 -4 -4 -136 -32 -139 -29 -2 2 -15 28 -30 58 -29 58 -45 55 -25 -5 17 -52
93 -130 158 -162 47 -23 70 -28 132 -28 80 1 162 27 144 45 -7 7 -23 5 -47 -5
-20 -8 -37 -14 -37 -11 0 2 6 19 14 37 7 19 16 42 19 51 5 14 12 15 44 7 69
-18 68 -17 43 -44 -17 -18 -19 -25 -9 -25 19 0 92 76 114 118 23 47 36 135 26
187 -8 43 -7 45 38 89 45 45 49 46 108 46 45 0 62 -4 67 -15 8 -22 53 -19 66
5 8 16 6 24 -10 40 -20 20 -23 20 -45 6 -16 -10 -47 -16 -88 -16 -60 0 -65 -2
-102 -40 -21 -22 -42 -40 -46 -40 -4 0 -19 20 -33 44 -53 91 -156 147 -269
145 -34 0 -75 -5 -92 -11z m140 -60 c13 -29 26 -68 30 -85 l7 -33 -72 0 -72 0
6 33 c8 42 55 137 67 137 6 0 21 -24 34 -52z m78 21 c41 -21 117 -86 117 -101
0 -8 -58 -25 -103 -30 -28 -3 -30 0 -53 72 -13 41 -24 76 -24 78 0 7 26 -1 63
-19z m153 -170 c7 -19 13 -51 13 -71 l1 -38 -85 0 -85 0 0 38 c0 20 -3 46 -6
58 -5 19 2 22 63 36 37 8 72 15 77 14 5 -1 15 -18 22 -37z m-192 0 c2 -2 6
-28 9 -56 l6 -53 -89 0 -90 0 0 29 c0 16 3 42 6 60 l6 31 75 -4 c40 -2 75 -5
77 -7z m6 -161 c0 -74 -5 -78 -85 -78 l-73 0 -6 45 c-4 25 -4 49 -1 55 3 5 42
10 86 10 l79 0 0 -32z m191 0 c-1 -12 -14 -44 -27 -71 -18 -35 -29 -47 -42
-43 -9 3 -38 10 -65 17 -36 9 -46 15 -43 28 2 9 8 35 11 59 l7 42 81 -4 c79
-5 82 -6 78 -28z m-215 -111 c3 -2 -3 -26 -13 -53 -16 -43 -22 -49 -50 -52
-29 -3 -32 0 -47 44 -26 76 -25 78 45 71 33 -3 63 -7 65 -10z m-138 -42 c17
-65 16 -66 -30 -49 -44 15 -113 62 -104 71 7 7 66 21 96 22 22 1 27 -5 38 -44z"/>
<path d="M640 3232 c0 -125 13 -312 22 -312 9 0 11 265 2 334 -10 69 -24 56
-24 -22z"/>
<path d="M3630 3262 c-16 -17 -30 -41 -30 -54 0 -21 -5 -23 -48 -24 -56 0
-104 -25 -136 -67 -18 -25 -21 -41 -19 -123 4 -167 40 -240 135 -268 14 -4 15
-9 5 -35 -6 -17 -17 -31 -24 -31 -31 0 -4 -39 47 -69 61 -36 148 -25 201 25
l27 26 71 -26 c113 -41 147 -62 224 -141 62 -65 207 -278 207 -305 0 -16 -30
-31 -86 -41 -33 -6 -87 -26 -121 -45 -34 -19 -68 -34 -76 -34 -10 0 -28 34
-53 98 -38 100 -49 120 -60 110 -3 -4 8 -43 25 -87 17 -44 31 -83 31 -85 0 -3
-33 12 -72 32 -40 20 -98 46 -130 56 -55 19 -58 19 -123 1 -37 -10 -79 -28
-93 -40 -22 -19 -31 -21 -66 -13 -22 5 -41 10 -42 11 -2 1 -21 74 -45 162 -23
88 -45 164 -49 168 -7 8 -630 80 -637 73 -2 -2 14 -62 36 -133 23 -71 41 -132
41 -137 0 -5 -15 -5 -34 -2 -82 16 -177 -38 -180 -102 -1 -19 -12 -43 -29 -60
-30 -31 -33 -52 -15 -82 8 -13 9 -23 3 -29 -6 -5 -62 -25 -125 -44 l-115 -35
-3 -44 c-4 -57 11 -96 43 -108 l25 -10 0 -383 c0 -415 8 -627 22 -627 6 0 9
192 6 501 l-3 501 25 -5 c14 -2 136 -34 272 -70 135 -37 253 -67 262 -67 25 0
20 -10 -48 -80 -49 -51 -68 -78 -81 -121 -19 -62 -33 -273 -36 -534 l-2 -180
32 -12 c30 -13 31 -15 31 -76 l0 -63 -84 -62 c-46 -34 -98 -67 -115 -73 -86
-30 -58 -119 37 -119 64 0 89 -8 95 -31 5 -18 -1 -19 -79 -19 -47 0 -84 -4
-84 -10 0 -11 350 -16 783 -12 177 2 287 6 287 12 0 6 -104 10 -275 10 -172 0
-275 4 -275 10 0 5 11 39 25 76 14 36 25 74 25 84 0 9 34 86 75 171 l74 154 1
-172 c0 -109 4 -173 10 -173 6 0 10 75 10 204 0 187 2 207 22 252 12 27 58
147 103 266 59 156 85 214 92 207 6 -6 49 -17 95 -23 62 -9 82 -16 81 -27 -2
-8 -38 -174 -82 -369 -49 -217 -77 -358 -71 -364 12 -12 7 -32 99 378 44 197
82 360 83 361 2 1 27 5 56 7 l52 5 0 -323 c0 -209 4 -324 10 -324 6 0 10 113
10 320 0 346 -3 329 55 333 l29 2 83 -375 c45 -206 82 -377 83 -379 0 -3 5 0
10 5 7 7 -15 128 -70 379 -44 202 -80 371 -80 375 0 3 27 19 60 35 65 31 113
75 129 118 14 35 -1 67 -30 67 -18 0 -20 4 -14 28 4 15 13 53 20 85 7 32 14
59 16 61 9 6 112 26 116 22 4 -3 18 -588 23 -923 0 -18 5 -33 11 -33 8 0 9
134 4 488 l-7 487 23 10 c22 9 24 15 20 70 -1 33 -4 61 -5 63 -2 1 -56 -11
-122 -28 -65 -16 -303 -66 -528 -111 l-409 -80 -171 40 c-260 63 -796 204
-796 211 0 3 48 20 108 37 86 25 110 29 122 19 8 -6 27 -18 42 -25 23 -12 30
-11 62 8 19 12 47 36 62 54 15 18 35 35 46 39 31 12 68 -2 74 -28 4 -17 17
-27 43 -34 105 -28 234 -54 395 -80 201 -33 198 -33 415 29 l105 29 57 -39
c72 -49 94 -57 180 -69 92 -13 215 4 230 32 6 10 13 67 16 125 5 88 4 105 -8
101 -10 -3 -15 -31 -19 -106 -3 -56 -10 -106 -16 -112 -17 -17 -172 -24 -237
-10 -45 9 -86 30 -178 91 -117 79 -119 80 -144 63 -34 -22 -44 -10 -17 19 26
27 28 37 8 37 -8 0 -24 -13 -36 -30 -12 -16 -28 -30 -37 -30 -11 0 -8 8 11 31
26 30 33 49 19 49 -4 0 -24 -17 -45 -37 -46 -45 -64 -36 -20 10 35 36 39 47
18 47 -8 0 -28 -17 -44 -37 -17 -21 -33 -35 -36 -32 -3 3 10 24 29 46 40 47
100 68 170 61 46 -6 164 -57 248 -109 26 -16 51 -29 56 -29 5 0 36 16 68 35
35 21 87 40 133 50 76 16 100 32 100 67 0 33 -111 209 -183 291 -90 102 -122
124 -243 170 l-100 38 -37 -35 c-55 -51 -124 -59 -184 -20 l-23 14 20 51 c10
28 27 60 36 70 23 25 11 35 -18 15 -33 -24 -66 -20 -98 13 -52 51 -76 193 -40
236 10 11 19 8 56 -20 52 -40 95 -50 170 -41 47 5 54 4 54 -12 0 -9 -9 -23
-20 -29 -18 -12 -18 -16 -5 -60 7 -27 16 -72 20 -100 9 -71 29 -70 23 2 -3 39
-1 56 9 59 7 3 22 20 33 38 30 49 26 114 -9 182 -28 53 -29 55 -10 61 20 7 49
53 49 79 0 48 -51 97 -117 111 -28 6 -37 2 -63 -23z m130 -41 c13 -25 13 -41
0 -41 -5 0 -10 8 -10 18 0 10 -5 23 -12 30 -9 9 -9 12 0 12 6 0 16 -9 22 -19z
m-429 -988 c12 -50 19 -98 16 -105 -4 -10 -6 -10 -10 2 -8 26 -47 204 -47 215
1 27 22 -30 41 -112z m-222 43 c19 -20 17 -67 -5 -83 -25 -18 -74 -16 -96 4
-25 23 -23 68 5 88 25 18 73 13 96 -9z m-331 -48 c5 -7 17 -40 26 -73 10 -33
19 -68 22 -77 4 -15 -1 -18 -31 -18 -30 0 -45 -9 -91 -55 -31 -30 -63 -55 -72
-55 -11 0 1 17 31 48 26 27 45 51 41 55 -4 3 -31 -14 -60 -39 -72 -62 -95 -51
-26 12 28 27 52 52 52 57 0 16 -20 5 -69 -39 -29 -26 -55 -43 -59 -39 -4 4 18
29 48 56 41 38 51 52 41 58 -11 7 -8 13 13 27 26 16 30 16 83 0 39 -13 58 -15
66 -7 11 11 12 10 -59 30 -59 16 -81 14 -114 -11 -16 -12 -33 -19 -36 -15 -14
14 8 59 39 77 37 23 138 28 155 8z m-203 -148 c-39 -40 -55 -49 -55 -31 0 20
53 71 73 71 18 0 16 -5 -18 -40z m909 -15 c-5 -27 -3 -35 9 -35 8 0 20 -7 27
-15 7 -8 24 -15 39 -15 62 -1 71 -2 71 -9 0 -4 -28 -13 -61 -19 -64 -12 -77
-17 -66 -29 6 -5 151 22 222 42 21 5 54 -9 43 -20 -5 -6 -271 -75 -288 -75 -4
0 -15 37 -24 83 -9 45 -19 92 -22 105 -6 19 -3 22 25 22 31 0 32 -1 25 -35z
m411 -385 c-3 -5 -13 -10 -21 -10 -8 0 -12 5 -9 10 3 6 13 10 21 10 8 0 12 -4
9 -10z m230 -82 c-8 -35 -24 -74 -34 -88 -45 -62 -175 -106 -350 -120 -147
-11 -199 -5 -222 24 -25 30 -34 13 -13 -22 17 -29 17 -32 -15 -124 -51 -146
-142 -382 -152 -392 -5 -6 -9 125 -9 315 l0 326 53 11 c28 7 207 41 397 77
189 36 346 68 349 71 13 12 11 -20 -4 -78z m-340 50 c-22 -5 -78 -18 -124 -29
-46 -11 -86 -18 -89 -15 -13 14 147 54 213 54 l40 0 -40 -10z m-655 -97 l125
-28 -31 -16 c-43 -22 -88 -76 -108 -128 -21 -56 -101 -472 -117 -609 -7 -58
-15 -109 -19 -113 -7 -8 -124 15 -173 35 l-29 11 7 241 c12 435 22 484 127
581 32 30 67 55 76 54 9 0 73 -13 142 -28z m180 -397 l0 -355 -46 -107 c-25
-59 -48 -110 -52 -113 -8 -8 -95 13 -161 38 l-43 17 7 70 c16 172 107 633 136
692 28 59 92 106 152 113 4 1 7 -159 7 -355z m770 246 c0 -5 -5 -10 -11 -10
-5 0 -7 5 -4 10 3 6 8 10 11 10 2 0 4 -4 4 -10z m-45 -40 c-16 -25 -194 -58
-242 -44 -22 6 -10 9 57 15 47 4 103 13 125 22 48 18 68 20 60 7z m-1102 -726
c13 -4 17 -16 17 -52 0 -95 -16 -109 -77 -72 -31 19 -33 23 -33 81 l0 61 38
-6 c20 -4 45 -9 55 -12z m68 -29 c0 -6 -3 -31 -6 -57 -8 -53 -25 -75 -25 -31
0 49 12 104 22 101 5 -2 9 -8 9 -13z m156 -45 l43 -11 -25 -49 c-17 -33 -32
-50 -44 -50 -36 0 -77 12 -99 29 -21 16 -22 20 -12 68 l11 51 42 -13 c23 -8
61 -19 84 -25z m-197 -109 c0 -12 -54 -53 -100 -76 -19 -9 -52 -33 -72 -53
-21 -20 -38 -33 -38 -28 0 24 30 51 101 92 44 26 83 53 86 60 6 16 23 19 23 5z"/>
<path d="M4042 1591 c4 -13 18 -16 19 -4 0 4 -5 9 -11 12 -7 2 -11 -2 -8 -8z"/>
<path d="M3974 1549 c-11 -18 -87 -49 -121 -49 -18 0 -33 -4 -33 -10 0 -5 20
-10 43 -10 50 0 130 38 135 63 4 19 -13 23 -24 6z"/>
<path d="M2966 1460 c-33 -35 -46 -57 -46 -78 0 -16 -7 -35 -15 -42 -19 -16
-21 -104 -2 -98 6 3 13 23 15 46 2 28 8 42 17 42 10 0 12 9 8 34 -5 31 -1 39
42 80 25 25 44 50 40 56 -9 14 -8 15 -59 -40z"/>
<path d="M2846 1003 c-14 -103 -19 -218 -8 -208 9 9 32 171 32 229 0 44 -17
29 -24 -21z"/>
<path d="M3102 918 c-7 -7 -12 -28 -12 -47 0 -19 -8 -43 -17 -53 -14 -16 -15
-23 -5 -38 16 -27 15 -49 -3 -56 -8 -4 -15 -12 -15 -20 0 -23 28 -16 46 11 14
21 15 30 5 52 -8 18 -9 29 -1 37 5 5 10 27 10 47 0 21 7 44 15 53 8 8 15 17
15 20 0 11 -26 6 -38 -6z"/>
<path d="M1460 3230 c0 -6 47 -10 120 -10 73 0 120 4 120 10 0 6 -47 10 -120
10 -73 0 -120 -4 -120 -10z"/>
<path d="M1427 3104 c-18 -18 17 -24 149 -24 121 0 144 2 144 15 0 13 -23 15
-143 15 -79 0 -147 -3 -150 -6z"/>
<path d="M3890 3063 c0 -5 22 -27 50 -51 34 -30 60 -65 87 -119 34 -68 38 -84
38 -154 0 -61 3 -79 14 -79 11 0 13 17 9 88 -7 115 -43 196 -122 270 -51 48
-76 63 -76 45z"/>
<path d="M4082 3023 c2 -5 20 -42 41 -83 20 -41 37 -80 37 -87 0 -7 5 -13 10
-13 25 0 -7 99 -51 161 -18 25 -47 42 -37 22z"/>
<path d="M1470 2960 c0 -5 23 -10 50 -10 28 0 50 5 50 10 0 6 -22 10 -50 10
-27 0 -50 -4 -50 -10z"/>
<path d="M3456 2908 c-12 -45 -7 -68 14 -68 11 0 20 5 20 10 0 6 -4 10 -9 10
-6 0 -7 16 -4 35 6 39 -11 49 -21 13z"/>
<path d="M3646 2826 c-22 -35 -21 -49 3 -37 23 13 35 41 23 53 -5 5 -16 -2
-26 -16z"/>
<path d="M3470 2810 c0 -5 11 -10 25 -10 14 0 25 5 25 10 0 6 -11 10 -25 10
-14 0 -25 -4 -25 -10z"/>
<path d="M3279 2603 c-86 -66 -89 -69 -89 -82 0 -18 8 -14 68 35 31 26 67 51
80 57 21 10 31 37 13 37 -5 0 -37 -21 -72 -47z"/>
<path d="M3830 2590 c0 -5 4 -10 9 -10 6 0 13 5 16 10 3 6 -1 10 -9 10 -9 0
-16 -4 -16 -10z"/>
<path d="M1260 2576 l-245 -11 3 -75 c2 -41 4 -75 5 -75 4 -1 502 22 505 24 8
4 -4 145 -13 146 -5 1 -120 -3 -255 -9z"/>
<path d="M3763 2538 c-13 -6 -23 -15 -23 -20 0 -12 33 -9 53 6 33 25 13 35
-30 14z"/>
<path d="M3457 2476 c-15 -37 -28 -179 -18 -189 13 -13 18 1 25 78 3 33 8 75
12 93 7 32 -8 46 -19 18z"/>
<path d="M3950 2442 c0 -4 21 -25 46 -46 25 -21 53 -55 62 -75 9 -20 18 -38
19 -40 2 -2 12 4 22 13 25 23 41 13 41 -25 0 -38 17 -37 25 1 9 42 -10 63 -50
57 -28 -5 -34 -1 -50 29 -25 46 -115 114 -115 86z"/>
<path d="M3786 2043 c-3 -3 -1 -12 6 -20 13 -17 159 -85 166 -78 10 10 -22 35
-66 51 -26 10 -59 26 -73 35 -14 10 -29 16 -33 12z"/>
<path d="M4030 1932 c0 -16 34 -32 64 -32 32 0 34 16 4 23 -13 3 -33 9 -45 12
-14 5 -23 3 -23 -3z"/>
<path d="M460 1428 c0 -7 11 -36 24 -65 42 -90 146 -186 236 -218 65 -23 55 1
-15 33 -84 40 -157 113 -197 197 -28 60 -48 82 -48 53z"/>
<path d="M430 1233 c0 -32 88 -113 122 -113 25 0 23 17 -3 25 -28 9 -89 64
-89 81 0 8 -7 14 -15 14 -8 0 -15 -3 -15 -7z"/>
</g>
</svg>
