<svg width="490" height="447" viewBox="0 0 490 447" fill="none" xmlns="http://www.w3.org/2000/svg">
<g clip-path="url(#clip0_2988_2463)">
<path d="M71.7588 206.105C-23.9157 261.216 -23.9157 350.559 71.7588 405.67C167.433 460.781 322.568 460.781 418.242 405.67C513.916 350.559 513.916 261.216 418.242 206.105C322.568 150.995 167.433 150.995 71.7588 206.105Z" fill="#F5F5F5"/>
<path d="M429.474 233.351L441.64 240.358C441.477 236.028 441.101 229.589 441.701 225.249C445.37 198.733 455.727 189.983 460.657 177.075C465.841 163.477 459.519 159.107 451.306 161.55C443.978 163.73 433.377 174.55 430.043 194.333C427.827 207.505 428.213 221.802 429.484 233.341L429.474 233.351Z" fill="#8408F3"/>
<path opacity="0.65" d="M429.474 233.351L441.64 240.358C441.477 236.028 441.101 229.589 441.701 225.249C445.37 198.733 455.727 189.983 460.657 177.075C465.841 163.477 459.519 159.107 451.306 161.55C443.978 163.73 433.377 174.55 430.043 194.333C427.827 207.505 428.213 221.802 429.484 233.341L429.474 233.351Z" fill="white"/>
<path d="M435.928 237.062L437.148 237.762C432.798 206.845 443.389 180.025 453.847 168.952C454.051 168.739 454.041 168.404 453.827 168.202C453.604 167.999 453.268 168.009 453.075 168.222C442.626 179.305 432.025 206.297 435.928 237.062Z" fill="white"/>
<path d="M438.225 238.381L445.065 242.325C448.704 231.638 452.445 227.359 457.079 220.321C461.308 213.923 466.227 209.958 468.839 205.466C471.157 201.481 472.895 196.482 469.449 193.451C463.981 188.634 456.835 193.734 451.926 199.24C447.688 204.006 439.15 216.681 438.215 238.371L438.225 238.381Z" fill="#8408F3"/>
<path opacity="0.3" d="M438.225 238.381L445.065 242.325C448.704 231.638 452.445 227.359 457.079 220.321C461.308 213.923 466.227 209.958 468.839 205.466C471.157 201.481 472.895 196.482 469.449 193.451C463.981 188.634 456.835 193.734 451.926 199.24C447.688 204.006 439.15 216.681 438.215 238.371L438.225 238.381Z" fill="white"/>
<path d="M441.03 240.003L442.026 240.581C444.903 223.677 456.409 204.117 463.564 199.494C463.818 199.331 463.889 198.997 463.717 198.743C463.554 198.49 463.218 198.419 462.964 198.581C455.565 203.367 444.079 222.836 441.03 240.003Z" fill="white"/>
<path d="M259.224 434.356L269.256 422.979H269.266L367.604 366.195C370.236 364.4 374.19 368.041 375.725 371.711C375.969 372.289 376.152 372.867 376.264 373.425C376.558 374.946 376.304 376.325 375.166 377.106L275.954 434.386L261.308 437.276L257.324 438.057C257.12 438.098 256.948 438.037 256.815 437.915C256.612 437.722 256.551 437.378 256.775 437.114L259.214 434.356H259.224Z" fill="#E0E0E0"/>
<path d="M60.5376 334.488C57.9966 333.028 57.9966 330.645 60.5376 329.175L190.455 253.865L359.555 351.249L229.21 426.326C226.669 427.786 222.553 427.786 220.012 426.326L123.433 370.698L107.262 373.74C106.225 373.933 105.158 373.75 104.253 373.233L64.1763 350.195C61.9809 348.938 61.2999 346.088 62.7025 343.979L66.941 338.159L60.5579 334.478L60.5376 334.488Z" fill="#E0E0E0"/>
<path d="M180.443 191.92L240.767 157.14C241.417 156.765 242.474 156.765 243.115 157.14L282.348 179.732C282.999 180.107 282.999 180.715 282.348 181.09L222.024 215.87C221.374 216.246 220.317 216.246 219.676 215.87L180.443 193.279C179.792 192.903 179.792 192.295 180.443 191.92Z" fill="#E0E0E0"/>
<path d="M21.4055 277.197L163.001 195.54C163.672 195.155 164.749 195.155 165.42 195.54L205.751 218.771C206.422 219.156 206.422 219.774 205.751 220.16L64.1556 301.817C63.4847 302.202 62.4074 302.202 61.7365 301.817L21.4055 278.586C20.7346 278.201 20.7346 277.582 21.4055 277.197Z" fill="#E0E0E0"/>
<path d="M436.954 233.96C457.079 245.55 457.079 264.35 436.954 275.94C416.829 287.53 384.192 287.53 364.067 275.94C343.942 264.35 343.942 245.55 364.067 233.96C384.192 222.37 416.829 222.37 436.954 233.96Z" fill="#E0E0E0"/>
<path d="M464.356 326.214C464.356 342.975 441.029 356.563 412.255 356.563C383.48 356.563 360.144 342.975 360.144 326.214C360.144 320.85 362.542 315.82 366.72 311.45L310.584 287.286C306.975 285.735 306.681 280.736 310.086 278.769L311.143 278.16C315.483 275.666 320.809 275.575 325.22 277.937L375.41 304.737C384.842 299.252 397.863 295.855 412.255 295.855C441.029 295.855 464.356 309.442 464.356 326.204V326.214Z" fill="#E0E0E0"/>
<path d="M220.855 211.378L186.877 191.808V76.8105L220.855 96.3807V211.378Z" fill="#E0E0E0"/>
<path d="M220.855 96.381L275.152 65.1094V180.107L220.855 211.378V96.381Z" fill="#F0F0F0"/>
<path d="M275.152 65.1092L220.855 96.3808L186.877 76.8107L241.173 45.5391L275.152 65.1092Z" fill="#FAFAFA"/>
<path d="M225.704 173.12L270.304 147.436V174.367L271.188 174.884L226.599 200.559L225.704 200.042V173.12Z" fill="#E0E0E0"/>
<path d="M226.599 173.638L271.199 147.953L271.188 174.885L226.599 200.559V173.638Z" fill="#F5F5F5"/>
<path d="M246.672 166.783L253.279 162.981C254.133 162.484 254.834 162.717 254.834 163.488C254.834 164.258 254.143 165.282 253.279 165.779L246.672 169.582C245.819 170.078 245.117 169.845 245.117 169.075C245.117 168.304 245.808 167.28 246.672 166.783Z" fill="#E0E0E0"/>
<path d="M225.704 137.985L270.304 112.301V139.233L271.188 139.74L226.599 165.424L225.704 164.907V137.985Z" fill="#E0E0E0"/>
<path d="M226.599 138.493L271.199 112.818L271.188 139.74L226.599 165.424V138.493Z" fill="#F5F5F5"/>
<path d="M246.672 131.648L253.279 127.846C254.133 127.349 254.834 127.582 254.834 128.353C254.834 129.123 254.143 130.148 253.279 130.644L246.672 134.447C245.819 134.944 245.117 134.71 245.117 133.94C245.117 133.169 245.808 132.145 246.672 131.648Z" fill="#E0E0E0"/>
<path d="M225.704 102.384L270.304 76.6992V103.631L271.188 104.148L226.599 129.822L225.704 129.305V102.384Z" fill="#E0E0E0"/>
<path d="M226.599 102.901L271.199 77.2168L271.188 104.149L226.599 129.823V102.901Z" fill="#F5F5F5"/>
<path d="M246.672 96.0467L253.279 92.2442C254.133 91.7473 254.834 91.9805 254.834 92.7512C254.834 93.5218 254.143 94.546 253.279 95.0428L246.672 98.8453C245.819 99.3422 245.117 99.1089 245.117 98.3383C245.117 97.5677 245.808 96.5435 246.672 96.0467Z" fill="#E0E0E0"/>
<path d="M161.233 2.11952C162.178 1.57197 163.032 1.52127 163.642 1.87617C164.262 2.23106 166.274 3.38702 166.274 3.38702L164.638 195.813C164.638 197.983 163.103 200.63 161.223 201.715L29.2422 277.744L29.3032 78.0983L161.233 2.11952Z" fill="#8408F3"/>
<path opacity="0.25" d="M161.233 2.11952C162.178 1.57197 163.032 1.52127 163.642 1.87617C164.262 2.23106 166.274 3.38702 166.274 3.38702L164.638 195.813C164.638 197.983 163.103 200.63 161.223 201.715L29.2422 277.744L29.3032 78.0983L161.233 2.11952Z" fill="white"/>
<path d="M163.794 3.59993C165.685 2.51495 167.21 3.39713 167.21 5.56708V197.304C167.21 199.474 165.675 202.12 163.784 203.205L31.8037 279.224L31.8647 79.5787L163.794 3.59993Z" fill="#8408F3"/>
<path opacity="0.3" d="M163.794 3.59993C165.685 2.51495 167.21 3.39713 167.21 5.56708V197.304C167.21 199.474 165.675 202.12 163.784 203.205L31.8037 279.224L31.8647 79.5787L163.794 3.59993Z" fill="black"/>
<path d="M62.3878 261.641L164.913 202.556C167.139 201.268 168.948 198.145 168.958 195.58V28.2499L184.631 19.9757L168.623 10.7585C168.623 10.7585 168.023 10.4137 167.759 10.2616C167.047 9.85603 166.092 9.88645 165.004 10.5151L45.6069 79.2945L45.5459 271.345L62.3776 281.039V261.641H62.3878Z" fill="#EBEBEB"/>
<path d="M181.735 20.2392C183.971 18.9515 185.77 19.9959 185.77 22.5613V205.263C185.77 207.829 183.971 210.962 181.735 212.25L62.3779 281.029L62.4389 88.9781L181.735 20.2392Z" fill="#FAFAFA"/>
<path d="M62.4382 88.9887L45.6065 79.2949L45.5557 271.346L62.3874 281.04L62.4382 88.9887Z" fill="#E6E6E6"/>
<path d="M67.9473 100.7C67.9778 100.183 68.0489 99.6862 68.2522 99.1589C68.486 98.3781 68.9332 97.6177 69.482 97.1309C69.665 96.9079 69.8581 96.7558 70.1021 96.6239C71.2709 95.904 72.2568 96.6239 72.2365 98.2362C72.2162 98.9257 72.0434 99.6862 71.7181 100.355C71.3319 101.207 70.7424 101.947 70.0919 102.323C70.0004 102.383 69.9191 102.434 69.8175 102.434C68.7401 102.89 67.9473 102.221 67.9574 100.72L67.9473 100.7Z" fill="#263238"/>
<path d="M66.8802 110.718C68.8317 109.582 70.2445 108.254 71.1592 106.682C72.3484 104.624 72.5009 102.403 71.7081 100.335C71.2914 99.1887 70.5291 98.0936 69.472 97.1202C68.9231 97.6069 68.4759 98.3775 68.2421 99.1482C69.2077 100.182 69.7464 101.298 69.7972 102.413C70.1022 104.685 68.7097 106.997 65.7215 108.71C60.2227 111.884 51.2376 111.864 45.749 108.71C40.2604 105.546 40.1893 100.456 45.6067 97.2317V94.6055C45.251 94.7677 44.9054 95.0009 44.5802 95.1936C42.6592 96.2887 41.2159 97.6576 40.3214 99.1887L40.3011 99.2293C39.1322 101.247 38.9594 103.508 39.7929 105.597C40.5654 107.605 42.2018 109.349 44.5802 110.718C50.8412 114.328 60.6394 114.328 66.8802 110.718Z" fill="#455A64"/>
<path d="M192.569 20.1684C193.514 19.6208 194.368 19.5701 194.978 19.925C195.598 20.2799 197.61 21.4358 197.61 21.4358L195.974 213.862C195.974 216.032 194.439 218.678 192.559 219.763L60.5781 295.783L60.6391 96.137L192.569 20.1684Z" fill="#8408F3"/>
<path opacity="0.25" d="M192.569 20.1684C193.514 19.6208 194.368 19.5701 194.978 19.925C195.598 20.2799 197.61 21.4358 197.61 21.4358L195.974 213.862C195.974 216.032 194.439 218.678 192.559 219.763L60.5781 295.783L60.6391 96.137L192.569 20.1684Z" fill="white"/>
<path opacity="0.5" d="M88.7121 82.9452L172.972 34.4052L170.411 32.9248L86.1406 81.4648L88.7121 82.9452Z" fill="#8408F3"/>
<path d="M195.13 21.6488C197.02 20.5638 198.545 21.446 198.545 23.6159V215.352C198.545 217.522 197.01 220.169 195.12 221.254L63.1289 297.273L63.1899 97.6376L195.13 21.6488Z" fill="#8408F3"/>
<path opacity="0.4" d="M195.13 21.6488C197.02 20.5638 198.545 21.446 198.545 23.6159V215.352C198.545 217.522 197.01 220.169 195.12 221.254L63.1289 297.273L63.1899 97.6376L195.13 21.6488Z" fill="white"/>
<path opacity="0.5" d="M88.7119 282.54L172.972 234.01V34.4053L88.7119 82.9351V282.54Z" fill="#8408F3"/>
<path d="M29.3032 78.1084L29.2422 277.744L63.1394 297.274V97.6076L29.3032 78.1084Z" fill="#8408F3"/>
<path d="M34.0599 239.466C35.2592 237.398 37.1802 236.069 39.4773 235.724C41.6524 235.39 44.0816 235.958 46.4905 237.347C52.8939 241.038 57.9251 249.728 57.9251 257.11C57.9251 259.391 57.4576 261.358 56.5225 262.95C54.1136 267.118 49.1129 267.97 44.0918 265.069C37.6783 261.379 32.6572 252.689 32.6572 245.297C32.6572 243.025 33.1349 241.058 34.0497 239.456L34.0599 239.466Z" fill="#455A64"/>
<path d="M45.2913 239.406C39.6401 236.141 35.0459 238.787 35.0459 245.307C35.0459 251.827 39.6299 259.757 45.2913 263.012C50.9527 266.266 55.5367 263.63 55.5367 257.11C55.5367 250.59 50.9527 242.661 45.2913 239.406Z" fill="#F5F5F5"/>
<path d="M46.989 107.251L44.4277 105.771C39.2948 102.81 35.1377 105.213 35.1377 111.125V195.134C35.1377 201.046 39.2948 208.235 44.4277 211.196L46.989 212.676C52.1219 215.627 56.279 213.234 56.279 207.323V123.313C56.279 117.401 52.1219 110.212 46.989 107.251Z" fill="#F5F5F5"/>
<path d="M52.9649 173.729C52.8734 173.729 52.7819 173.708 52.7006 173.658L37.8103 165.09C37.5562 164.937 37.4647 164.613 37.6171 164.359C37.7696 164.106 38.0948 164.015 38.3489 164.167L53.2393 172.735C53.4934 172.887 53.5849 173.212 53.4324 173.465C53.3308 173.638 53.1478 173.739 52.9649 173.739V173.729Z" fill="#E0E0E0"/>
<path d="M52.9649 167.076C52.8734 167.076 52.7819 167.056 52.7006 167.005L37.8103 158.437C37.5562 158.285 37.4647 157.961 37.6171 157.707C37.7696 157.454 38.0948 157.362 38.3489 157.514L53.2393 166.093C53.4934 166.245 53.5849 166.569 53.4324 166.823C53.3308 166.995 53.1478 167.097 52.9649 167.097V167.076Z" fill="#E0E0E0"/>
<path d="M52.9649 160.435C52.8734 160.435 52.7819 160.415 52.7006 160.364L37.8103 151.796C37.5562 151.643 37.4647 151.319 37.6171 151.065C37.7696 150.812 38.0948 150.721 38.3489 150.873L53.2393 159.441C53.4934 159.593 53.5849 159.918 53.4324 160.171C53.3308 160.344 53.1478 160.445 52.9649 160.445V160.435Z" fill="#E0E0E0"/>
<path d="M52.9649 153.783C52.8734 153.783 52.7819 153.763 52.7006 153.712L37.8103 145.144C37.5562 144.992 37.4647 144.668 37.6171 144.414C37.7696 144.161 38.0948 144.069 38.3489 144.221L53.2393 152.79C53.4934 152.942 53.5849 153.266 53.4324 153.52C53.3308 153.692 53.1478 153.794 52.9649 153.794V153.783Z" fill="#E0E0E0"/>
<path d="M52.9649 147.141C52.8734 147.141 52.7819 147.121 52.7006 147.07L37.8103 138.492C37.5562 138.34 37.4647 138.015 37.6171 137.762C37.7696 137.508 38.0948 137.417 38.3489 137.569L53.2393 146.137C53.4934 146.289 53.5849 146.614 53.4324 146.867C53.3308 147.04 53.1478 147.141 52.9649 147.141Z" fill="#E0E0E0"/>
<path d="M52.9649 140.489C52.8734 140.489 52.7819 140.469 52.7006 140.419L37.8103 131.85C37.5562 131.698 37.4647 131.374 37.6171 131.12C37.7696 130.867 38.0948 130.775 38.3489 130.928L53.2393 139.496C53.4934 139.648 53.5849 139.972 53.4324 140.226C53.3308 140.398 53.1478 140.5 52.9649 140.5V140.489Z" fill="#E0E0E0"/>
<path d="M52.9649 133.848C52.8734 133.848 52.7819 133.828 52.7006 133.777L37.8103 125.209C37.5562 125.057 37.4647 124.732 37.6171 124.479C37.7696 124.225 38.0948 124.134 38.3489 124.286L53.2393 132.854C53.4934 133.006 53.5849 133.331 53.4324 133.584C53.3308 133.757 53.1478 133.858 52.9649 133.858V133.848Z" fill="#E0E0E0"/>
<path d="M31.3355 76.9326L65.0193 96.3304L63.139 97.608L29.3027 78.1088L31.3355 76.9326Z" fill="#8408F3"/>
<path opacity="0.25" d="M31.3355 76.9326L65.0193 96.3304L63.139 97.608L29.3027 78.1088L31.3355 76.9326Z" fill="white"/>
<path d="M117.314 137.701C117.314 138.613 116.328 141.351 115.718 141.706C115.423 141.878 114.438 141.392 112.1 142.74C109.193 144.413 107.841 147.648 107.841 152.566C107.841 157.484 109.223 159.238 112.049 157.605C114.387 156.257 115.718 154.178 116.084 153.965C116.877 153.509 117.538 155.425 117.538 155.983C117.538 157.95 114.021 160.759 112.049 161.895C106.53 165.068 103.948 162.858 103.948 154.766C103.948 146.675 106.703 141.513 112.171 138.37C114.336 137.123 117.314 136.322 117.314 137.701Z" fill="#FAFAFA"/>
<path d="M127.682 130.329L133.099 148.267C133.15 148.47 133.17 148.652 133.17 148.814C133.17 149.271 132.804 149.747 131.94 150.244L130.853 150.873C130.141 151.289 129.603 151.431 129.47 150.974L128.485 147.547L122.671 150.893L121.685 155.456C121.563 156.014 121.146 156.46 120.557 156.795L119.571 157.362C118.534 157.961 118.066 157.961 118.066 157.504C118.066 157.342 118.117 157.119 118.168 156.855L123.585 132.672C123.728 132.063 124.277 131.587 124.988 131.171L126.269 130.431C126.98 130.015 127.529 129.873 127.671 130.309L127.682 130.329ZM125.567 136.981C125.466 137.721 125.395 138.492 125.202 139.293L123.748 145.965L127.438 143.836L126.035 138.816C125.862 138.228 125.761 137.559 125.669 136.93L125.567 136.981Z" fill="#FAFAFA"/>
<path d="M144.331 122.146C144.331 123.028 143.568 125.432 142.979 125.776C142.664 125.959 141.891 125.584 140.245 126.527C138.324 127.632 137.958 128.93 137.958 129.68C137.958 131.485 139.167 131.445 140.59 131.374C142.613 131.323 145.073 131.252 145.073 135.703C145.073 141.037 142.196 144.535 139.513 146.077C135.772 148.236 133.729 147.638 133.729 146.523C133.729 145.509 134.736 143.024 135.254 142.73C135.701 142.477 136.901 143.288 138.873 142.152C139.93 141.544 141.19 140.398 141.19 138.532C141.19 136.565 139.249 137.133 137.399 137.052C135.701 136.951 134.075 136.312 134.075 132.378C134.075 127.662 137.033 124.063 139.909 122.4C142.521 120.899 144.341 121.061 144.341 122.136L144.331 122.146Z" fill="#FAFAFA"/>
<path d="M157.92 113.922V114.936C157.92 116.082 157.696 116.701 157.178 117.005L150.978 120.574V125.32L156.517 122.126C157.036 121.832 157.259 122.187 157.259 123.342V124.356C157.259 125.502 157.036 126.121 156.517 126.415L150.978 129.609V134.912L157.208 131.323C157.727 131.029 157.95 131.394 157.95 132.539V133.553C157.95 134.699 157.727 135.318 157.208 135.622L148.172 140.824C147.481 141.219 147.187 140.996 147.187 140.084V119.773C147.187 118.861 147.481 118.293 148.172 117.897L157.178 112.706C157.696 112.412 157.92 112.766 157.92 113.922Z" fill="#FAFAFA"/>
<path d="M104.924 176.972C104.924 177.855 104.162 180.258 103.573 180.603C103.247 180.785 102.485 180.41 100.838 181.363C98.9174 182.468 98.5515 183.766 98.5515 184.517C98.5515 186.322 99.761 186.281 101.184 186.21C103.207 186.159 105.666 186.088 105.666 190.54C105.666 195.883 102.78 199.372 100.107 200.913C96.3662 203.073 94.3232 202.474 94.3232 201.359C94.3232 200.345 95.3295 197.861 95.8479 197.567C96.2951 197.313 97.4944 198.124 99.4663 196.989C100.523 196.38 101.784 195.235 101.784 193.359C101.784 191.391 99.8423 191.959 97.9925 191.878C96.2951 191.777 94.6688 191.138 94.6688 187.204C94.6688 182.489 97.6266 178.889 100.503 177.226C103.115 175.725 104.935 175.887 104.935 176.962L104.924 176.972Z" fill="#FAFAFA"/>
<path d="M119.398 168.242V169.256C119.398 170.402 119.175 171.02 118.656 171.324L114.743 173.575V191.229C114.743 191.919 114.296 192.537 113.269 193.125L112.405 193.622C111.369 194.22 110.932 194.109 110.932 193.429V175.776L107.018 178.027C106.5 178.321 106.276 177.956 106.276 176.81V175.796C106.276 174.65 106.5 174.032 107.018 173.738L118.666 167.025C119.185 166.731 119.408 167.086 119.408 168.242H119.398Z" fill="#FAFAFA"/>
<path d="M135.498 158.305V172.583C135.498 177.622 132.865 182.023 128.363 184.619C123.86 187.214 121.228 185.846 121.228 180.806V166.529C121.228 165.839 121.675 165.221 122.701 164.633L123.535 164.146C124.572 163.548 125.009 163.659 125.009 164.349V178.301C125.009 180.593 126.36 181.485 128.353 180.34C130.345 179.194 131.727 176.73 131.727 174.438V160.486C131.727 159.796 132.174 159.177 133.201 158.589L134.014 158.123C135.051 157.525 135.488 157.636 135.488 158.316L135.498 158.305Z" fill="#FAFAFA"/>
<path d="M153.203 158.599C153.203 166.001 150.398 171.68 145.326 174.6L139.807 177.774C139.116 178.169 138.821 177.946 138.821 177.033V156.723C138.821 155.81 139.116 155.243 139.807 154.847L145.326 151.673C150.398 148.753 153.203 151.197 153.203 158.599ZM142.643 157.504V171.852L145.326 170.311C147.959 168.79 149.311 165.494 149.311 160.84C149.311 156.186 147.959 154.452 145.326 155.963L142.643 157.504Z" fill="#FAFAFA"/>
<path d="M166.6 139.353C167.688 138.725 168.155 138.725 168.155 139.12C168.155 139.313 168.084 139.658 167.932 140.063L163.032 153.499V163.426C163.032 164.115 162.585 164.734 161.559 165.322L160.725 165.809C159.688 166.407 159.251 166.295 159.251 165.616V155.598L154.352 147.901C154.2 147.658 154.108 147.425 154.108 147.222C154.108 146.827 154.596 146.279 155.684 145.66L156.741 145.052C157.452 144.646 158.001 144.464 158.215 144.829L161.223 150.112L164.252 141.361C164.476 140.743 165.014 140.296 165.726 139.891L166.61 139.384L166.6 139.353Z" fill="#FAFAFA"/>
<path d="M62.1338 327.663C59.6233 326.213 59.6131 323.86 62.1338 322.41L190.659 247.912L357.939 344.252L228.987 418.527C226.477 419.977 222.401 419.977 219.89 418.527L124.348 363.498L108.35 366.509C107.333 366.702 106.266 366.519 105.372 366.002L65.7217 343.218C63.5466 341.97 62.8758 339.151 64.2581 337.063L68.4558 331.303L62.1439 327.663H62.1338Z" fill="#37474F"/>
<path d="M195.933 250.924L352.267 340.997L224.433 414.066L68.9941 324.51L195.933 250.924Z" fill="#F0F0F0"/>
<path d="M358.122 344.364L241.744 411.125C239.365 412.494 235.401 412.423 232.88 410.973L75.134 320.119C72.6234 318.669 72.5116 316.387 74.8799 315.008L190.832 248.014L358.112 344.353L358.122 344.364Z" fill="#455A64"/>
<path d="M77.207 302.749L192.356 236.434L349.94 327.369L234.791 393.684L77.207 302.749Z" fill="white"/>
<path d="M192.356 236.91L349.106 327.369L234.791 393.208L78.0405 302.749L192.356 236.91ZM192.356 235.957L76.3838 302.749L234.791 394.171L350.763 327.379L192.356 235.967V235.957Z" fill="#E6E6E6"/>
<path d="M187.284 264.886L128.627 298.672L130.233 299.595L188.89 265.808L187.284 264.886Z" fill="#8408F3"/>
<path opacity="0.5" d="M187.284 264.886L128.627 298.672L130.233 299.595L188.89 265.808L187.284 264.886Z" fill="white"/>
<path d="M211.84 258.822L118.117 312.807L116.369 311.793L210.082 257.818L211.84 258.822Z" fill="#E0E0E0"/>
<path d="M216.008 261.226L122.295 315.211L120.547 314.197L214.26 260.222L216.008 261.226Z" fill="#E0E0E0"/>
<path d="M220.185 263.639L126.472 317.614L124.714 316.6L218.437 262.625L220.185 263.639Z" fill="#E0E0E0"/>
<path d="M261.471 288.492L167.748 342.467L166 341.453L259.713 287.478L261.471 288.492Z" fill="#E0E0E0"/>
<path d="M265.649 290.895L171.926 344.87L170.178 343.866L263.891 289.881L265.649 290.895Z" fill="#E0E0E0"/>
<path d="M269.816 293.298L176.103 347.273L174.345 346.269L268.068 292.284L269.816 293.298Z" fill="#E0E0E0"/>
<path d="M320.525 323.485L226.802 377.46L225.054 376.456L318.777 322.471L320.525 323.485Z" fill="#E0E0E0"/>
<path d="M324.703 325.888L230.98 379.873L229.231 378.859L322.944 324.884L324.703 325.888Z" fill="#E0E0E0"/>
<path d="M328.869 328.291L235.156 382.276L233.408 381.262L327.121 327.287L328.869 328.291Z" fill="#E0E0E0"/>
<path d="M149.382 319.033L138.141 325.512L133.709 322.957L144.95 316.478L149.382 319.033Z" fill="#8408F3"/>
<path d="M163.134 311.114L151.893 317.593L147.451 315.038L158.693 308.559L163.134 311.114Z" fill="#8408F3"/>
<path d="M176.876 303.205L165.634 309.674L161.192 307.119L172.444 300.649L176.876 303.205Z" fill="#8408F3"/>
<path d="M190.628 295.286L179.376 301.755L174.944 299.2L186.186 292.73L190.628 295.286Z" fill="#8408F3"/>
<path d="M204.37 287.366L193.128 293.845L188.687 291.29L199.928 284.811L204.37 287.366Z" fill="#8408F3"/>
<path d="M218.111 279.447L206.87 285.926L202.438 283.371L213.68 276.892L218.111 279.447Z" fill="#8408F3"/>
<path d="M155.186 322.379L143.944 328.849L139.513 326.294L150.754 319.824L155.186 322.379Z" fill="#F0F0F0"/>
<path d="M168.938 314.46L157.697 320.939L153.255 318.384L164.496 311.904L168.938 314.46Z" fill="#E0E0E0"/>
<path d="M182.679 306.541L171.438 313.02L166.996 310.465L178.238 303.985L182.679 306.541Z" fill="#F0F0F0"/>
<path d="M196.421 298.622L185.18 305.101L180.748 302.546L191.99 296.066L196.421 298.622Z" fill="#F0F0F0"/>
<path d="M210.173 290.713L198.932 297.182L194.49 294.627L205.732 288.157L210.173 290.713Z" fill="#F0F0F0"/>
<path d="M223.915 282.793L212.674 289.262L208.242 286.707L219.484 280.237L223.915 282.793Z" fill="#E0E0E0"/>
<path d="M237.668 274.874L226.426 281.353L221.984 278.798L233.226 272.318L237.668 274.874Z" fill="#F0F0F0"/>
<path d="M160.989 325.727L149.748 332.196L145.316 329.641L156.558 323.161L160.989 325.727Z" fill="#F0F0F0"/>
<path d="M174.742 317.807L163.5 324.277L159.059 321.721L170.3 315.252L174.742 317.807Z" fill="#F0F0F0"/>
<path d="M188.483 309.887L177.242 316.367L172.8 313.801L184.041 307.332L188.483 309.887Z" fill="#F0F0F0"/>
<path d="M202.225 301.968L190.983 308.448L186.552 305.893L197.793 299.413L202.225 301.968Z" fill="#E0E0E0"/>
<path d="M215.977 294.048L204.736 300.528L200.294 297.973L211.535 291.493L215.977 294.048Z" fill="#F0F0F0"/>
<path d="M229.719 286.129L218.477 292.609L214.046 290.054L225.287 283.574L229.719 286.129Z" fill="#F0F0F0"/>
<path d="M243.471 278.22L232.23 284.69L227.788 282.134L239.03 275.665L243.471 278.22Z" fill="#F0F0F0"/>
<path d="M166.793 329.062L155.552 335.542L151.12 332.986L162.362 326.507L166.793 329.062Z" fill="#F0F0F0"/>
<path d="M180.545 321.143L169.304 327.623L164.862 325.067L176.104 318.588L180.545 321.143Z" fill="#E0E0E0"/>
<path d="M194.287 313.233L183.045 319.703L178.604 317.147L189.845 310.668L194.287 313.233Z" fill="#F0F0F0"/>
<path d="M208.028 305.314L196.787 311.783L192.355 309.228L203.597 302.759L208.028 305.314Z" fill="#F0F0F0"/>
<path d="M221.781 297.395L210.539 303.875L206.098 301.309L217.339 294.84L221.781 297.395Z" fill="#E0E0E0"/>
<path d="M235.523 289.475L224.281 295.955L219.85 293.399L231.091 286.92L235.523 289.475Z" fill="#F0F0F0"/>
<path d="M249.275 281.556L238.033 288.036L233.592 285.48L244.833 279.001L249.275 281.556Z" fill="#F0F0F0"/>
<path d="M149.382 319.034L138.141 325.513L133.709 322.958L144.95 316.479L149.382 319.034Z" fill="#8408F3"/>
<path d="M163.134 311.114L151.893 317.593L147.451 315.038L158.693 308.559L163.134 311.114Z" fill="#8408F3"/>
<path d="M176.876 303.205L165.634 309.674L161.192 307.119L172.444 300.649L176.876 303.205Z" fill="#8408F3"/>
<path d="M190.628 295.286L179.376 301.755L174.944 299.2L186.186 292.73L190.628 295.286Z" fill="#8408F3"/>
<path d="M204.37 287.367L193.128 293.846L188.687 291.291L199.928 284.812L204.37 287.367Z" fill="#8408F3"/>
<path d="M218.111 279.447L206.87 285.926L202.438 283.371L213.68 276.892L218.111 279.447Z" fill="#8408F3"/>
<path d="M231.864 271.528L220.622 278.007L216.181 275.452L227.422 268.973L231.864 271.528Z" fill="#8408F3"/>
<g opacity="0.3">
<path d="M149.382 319.034L138.141 325.513L133.709 322.958L144.95 316.479L149.382 319.034Z" fill="white"/>
<path d="M163.134 311.114L151.893 317.593L147.451 315.038L158.693 308.559L163.134 311.114Z" fill="white"/>
<path d="M176.876 303.205L165.634 309.674L161.192 307.119L172.444 300.649L176.876 303.205Z" fill="white"/>
<path d="M190.628 295.286L179.376 301.755L174.944 299.2L186.186 292.73L190.628 295.286Z" fill="white"/>
<path d="M204.37 287.367L193.128 293.846L188.687 291.291L199.928 284.812L204.37 287.367Z" fill="white"/>
<path d="M218.111 279.447L206.87 285.926L202.438 283.371L213.68 276.892L218.111 279.447Z" fill="white"/>
<path d="M231.864 271.528L220.622 278.007L216.181 275.452L227.422 268.973L231.864 271.528Z" fill="white"/>
</g>
<path d="M223.132 366.235L218.263 369.044C217.958 369.216 217.928 369.49 218.192 369.642L218.263 369.682C218.528 369.834 218.995 369.814 219.3 369.642L224.169 366.833C224.474 366.661 224.504 366.387 224.24 366.235L224.169 366.194C223.904 366.042 223.437 366.062 223.132 366.235Z" fill="#455A64"/>
<path d="M233.702 360.151L228.834 362.96C228.529 363.132 228.498 363.406 228.763 363.558L228.834 363.598C229.098 363.751 229.566 363.73 229.87 363.558L234.739 360.749C235.044 360.577 235.074 360.303 234.81 360.151L234.739 360.11C234.475 359.958 234.007 359.978 233.702 360.151Z" fill="#455A64"/>
<path d="M244.274 354.057L239.405 356.866C239.1 357.038 239.07 357.312 239.334 357.464L239.405 357.505C239.669 357.657 240.137 357.636 240.442 357.464L245.31 354.655C245.615 354.483 245.646 354.209 245.381 354.057L245.31 354.017C245.046 353.864 244.579 353.885 244.274 354.057Z" fill="#455A64"/>
<path d="M254.844 347.973L249.975 350.782C249.67 350.954 249.64 351.228 249.904 351.38L249.975 351.421C250.24 351.573 250.707 351.553 251.012 351.38L255.881 348.571C256.186 348.399 256.226 348.125 255.952 347.973L255.881 347.933C255.616 347.78 255.149 347.801 254.844 347.973Z" fill="#455A64"/>
<path d="M265.414 341.879L260.546 344.688C260.241 344.86 260.21 345.134 260.474 345.286L260.546 345.327C260.81 345.479 261.277 345.459 261.582 345.286L266.451 342.478C266.756 342.305 266.786 342.031 266.522 341.879L266.451 341.839C266.187 341.687 265.719 341.707 265.414 341.879Z" fill="#455A64"/>
<path d="M275.986 335.795L271.117 338.604C270.812 338.777 270.782 339.05 271.046 339.202L271.117 339.243C271.381 339.395 271.849 339.375 272.154 339.202L277.022 336.394C277.327 336.221 277.358 335.947 277.093 335.795L277.022 335.755C276.758 335.603 276.29 335.623 275.986 335.795Z" fill="#455A64"/>
<path d="M286.556 329.701L281.687 332.509C281.382 332.682 281.352 332.956 281.616 333.108L281.687 333.148C281.952 333.3 282.419 333.28 282.724 333.108L287.593 330.299C287.897 330.127 287.928 329.853 287.664 329.701L287.593 329.66C287.328 329.508 286.861 329.528 286.556 329.701Z" fill="#455A64"/>
<path d="M297.126 323.617L292.258 326.425C291.953 326.598 291.922 326.872 292.186 327.024L292.258 327.064C292.522 327.216 292.989 327.196 293.294 327.024L298.163 324.215C298.468 324.043 298.498 323.769 298.234 323.617L298.163 323.576C297.899 323.424 297.431 323.444 297.126 323.617Z" fill="#455A64"/>
<path d="M307.697 317.523L302.829 320.332C302.524 320.504 302.493 320.778 302.758 320.93L302.829 320.97C303.093 321.123 303.561 321.102 303.866 320.93L308.734 318.121C309.039 317.949 309.07 317.675 308.805 317.523L308.734 317.482C308.47 317.33 308.002 317.351 307.697 317.523Z" fill="#455A64"/>
<path d="M206.087 362.879L212.074 359.432L218.457 363.112L212.47 366.56L206.087 362.879Z" fill="#8408F3"/>
<path d="M210.062 352.993L216.048 349.545L229.028 357.018L223.041 360.466L210.062 352.993Z" fill="#8408F3"/>
<path opacity="0.8" d="M210.062 352.993L216.048 349.545L229.028 357.018L223.041 360.466L210.062 352.993Z" fill="white"/>
<path d="M212.409 342.173L218.396 338.726L239.598 350.934L233.611 354.382L212.409 342.173Z" fill="#8408F3"/>
<path opacity="0.3" d="M212.409 342.173L218.396 338.726L239.598 350.934L233.611 354.382L212.409 342.173Z" fill="white"/>
<path d="M234.455 342.701L240.442 339.253L250.169 344.85L244.172 348.298L234.455 342.701Z" fill="#8408F3"/>
<path opacity="0.6" d="M234.455 342.701L240.442 339.253L250.169 344.85L244.172 348.298L234.455 342.701Z" fill="white"/>
<path d="M242.86 335.369L248.847 331.922L260.729 338.756L254.742 342.214L242.86 335.369Z" fill="#8408F3"/>
<path opacity="0.8" d="M242.86 335.369L248.847 331.922L260.729 338.756L254.742 342.214L242.86 335.369Z" fill="white"/>
<path d="M249.762 327.165L255.748 323.718L271.299 332.671L265.313 336.119L249.762 327.165Z" fill="#8408F3"/>
<path d="M268.688 325.899L274.674 322.451L281.87 326.588L275.884 330.036L268.688 325.899Z" fill="#8408F3"/>
<path opacity="0.3" d="M268.688 325.899L274.674 322.451L281.87 326.588L275.884 330.036L268.688 325.899Z" fill="white"/>
<path d="M276.961 318.486L282.948 315.038L292.431 320.504L286.444 323.951L276.961 318.486Z" fill="#8408F3"/>
<path opacity="0.8" d="M276.961 318.486L282.948 315.038L292.431 320.504L286.444 323.951L276.961 318.486Z" fill="white"/>
<path d="M286.007 311.52L291.993 308.072L303.001 314.41L297.015 317.867L286.007 311.52Z" fill="#8408F3"/>
<path d="M283.497 303.307C283.497 310.932 274.126 315.606 266.106 317.3C263.159 317.918 260.74 318.223 258.605 318.496C254.346 319.034 250.992 319.46 246.683 321.944C243.918 323.536 242.678 325.462 241.479 327.328C239.924 329.742 238.45 332.033 233.693 333.108C230.349 333.858 226.995 333.818 223.763 333.777C218.762 333.706 213.599 333.635 208.588 336.525C200.212 341.352 198.952 351.654 198.729 358.995H199.979C200.202 351.796 201.422 341.676 209.472 337.032C214.107 334.365 218.782 334.426 223.742 334.497C227.096 334.538 230.573 334.588 234.15 333.787C239.425 332.601 241.001 330.167 242.647 327.592C243.806 325.797 244.995 323.941 247.567 322.461C251.622 320.129 254.661 319.744 258.88 319.206C261.055 318.932 263.524 318.618 266.543 317.979C274.949 316.215 284.757 311.307 284.757 303.317H283.517L283.497 303.307Z" fill="#8408F3"/>
<path opacity="0.3" d="M283.497 303.307C283.497 310.932 274.126 315.606 266.106 317.3C263.159 317.918 260.74 318.223 258.605 318.496C254.346 319.034 250.992 319.46 246.683 321.944C243.918 323.536 242.678 325.462 241.479 327.328C239.924 329.742 238.45 332.033 233.693 333.108C230.349 333.858 226.995 333.818 223.763 333.777C218.762 333.706 213.599 333.635 208.588 336.525C200.212 341.352 198.952 351.654 198.729 358.995H199.979C200.202 351.796 201.422 341.676 209.472 337.032C214.107 334.365 218.782 334.426 223.742 334.497C227.096 334.538 230.573 334.588 234.15 333.787C239.425 332.601 241.001 330.167 242.647 327.592C243.806 325.797 244.995 323.941 247.567 322.461C251.622 320.129 254.661 319.744 258.88 319.206C261.055 318.932 263.524 318.618 266.543 317.979C274.949 316.215 284.757 311.307 284.757 303.317H283.517L283.497 303.307Z" fill="white"/>
<path opacity="0.2" d="M285.743 320.2L200.781 271.254L280.417 225.381L365.368 274.337L285.743 320.2Z" fill="black"/>
<path d="M285.743 317.321L200.781 268.365L280.417 222.502L365.368 271.458L285.743 317.321Z" fill="white"/>
<path d="M285.743 317.837L285.519 317.706L199.887 268.365L280.417 221.984L280.64 222.116L366.273 271.457L285.743 317.837ZM201.686 268.365L285.743 316.793L364.474 271.447L280.417 223.019L201.686 268.365Z" fill="#E0E0E0"/>
<path d="M280.417 227.257L357.115 271.457L285.743 312.564L209.045 268.364L280.417 227.257Z" fill="#8408F3"/>
<path opacity="0.3" d="M280.417 227.257L357.115 271.457L285.743 312.564L209.045 268.364L280.417 227.257Z" fill="white"/>
<path d="M322.282 255.243L350 271.203L285.315 308.468L255.697 291.402L258.116 273.87L307.727 275.006L288.466 272.319L291.007 257.819L322.282 255.243Z" fill="#FAFAFA"/>
<path d="M259.265 263.092C262.02 264.673 266.482 264.673 269.236 263.092C271.991 261.51 271.991 258.934 269.236 257.352C266.482 255.771 262.02 255.771 259.265 257.352C256.511 258.934 256.511 261.51 259.265 263.092Z" fill="#FAFAFA"/>
<path d="M362.929 378.647L361.557 379.427L359.911 380.381L274.065 429.955C274.573 428.809 274.177 426.517 272.998 424.327C271.636 421.772 269.542 419.744 268.027 419.673L353.436 370.342L356.587 368.537C354.615 369.815 360.917 379.904 362.919 378.647H362.929Z" fill="#455A64"/>
<path d="M353.589 370.251L356.648 368.507C357.512 367.97 359.169 369.531 360.612 371.59C362.533 374.317 364.099 377.937 362.95 378.647L360.704 379.935L359.891 380.381C361.039 379.671 359.484 376.051 357.553 373.324C356.171 371.346 354.585 369.836 353.701 370.201C353.701 370.201 353.64 370.221 353.609 370.251H353.589Z" fill="#EBEBEB"/>
<path d="M354.351 369.815C356.363 368.568 362.655 378.708 360.643 379.955L357.593 381.709C359.606 380.462 353.314 370.322 351.302 371.569L354.351 369.815Z" fill="#8408F3"/>
<path d="M348.395 373.243L351.413 371.509C353.385 370.272 359.555 379.996 357.888 381.547C357.857 381.578 357.827 381.608 357.786 381.628L354.737 383.352C356.709 382.075 350.407 371.985 348.405 373.243H348.395Z" fill="#EBEBEB"/>
<path d="M356.607 368.517V368.537L356.648 368.517C357.512 367.959 359.159 369.531 360.602 371.599C362.503 374.276 364.058 377.825 362.99 378.606L375.736 371.305C376.763 370.606 376.997 369.359 376.722 367.99C376.011 364.289 371.671 359.584 368.916 361.459L356.607 368.517Z" fill="#F28F8F"/>
<path d="M259.906 430.432C260.963 431.852 260.852 432.551 260.852 432.551L274.065 429.956C275.376 427.958 274.512 424.713 272.703 422.401L272.123 422.726L259.906 430.422V430.432Z" fill="#F28F8F"/>
<path d="M257.264 433.251L260.862 432.541C260.862 432.541 261.024 431.852 259.916 430.422L256.776 432.399C256.572 432.632 256.623 432.947 256.806 433.119C256.918 433.231 257.081 433.281 257.264 433.251Z" fill="#37474F"/>
<path d="M268.048 419.663L258.981 429.925C259.337 429.986 259.683 430.168 259.917 430.432L272.134 422.735L272.713 422.411C271.473 420.829 269.796 419.694 268.058 419.673L268.048 419.663Z" fill="#FFA8A7"/>
<path d="M259.906 430.431C259.662 430.076 259.144 429.884 258.971 429.924L256.775 432.409L259.916 430.431H259.906Z" fill="#455A64"/>
<path opacity="0.2" d="M272.703 422.4L375.431 364.896C376.061 365.9 376.529 366.975 376.712 367.989C376.986 369.368 376.742 370.595 375.715 371.305L362.919 378.646L361.547 379.427L359.9 380.38L274.054 429.954C275.66 427.47 273.902 423.81 272.692 422.4H272.703Z" fill="black"/>
<path d="M322.903 266.144C322.903 266.144 322.913 266.144 322.923 266.144L359.646 287.194L359.697 287.225C360.601 287.721 361.191 288.786 361.272 290.348C361.435 293.521 359.392 297.496 356.719 299.22C355.377 300.082 354.127 300.224 353.202 299.737L314.629 282.651C313.094 281.952 311.742 280.816 310.757 279.305C307.961 275.026 309.171 269.307 313.45 266.519C316.387 264.602 320.016 264.572 322.913 266.123L322.903 266.144Z" fill="#455A64"/>
<path d="M353.202 299.748L314.629 282.662C313.095 281.962 311.743 280.827 310.757 279.316C308.074 275.209 309.09 269.774 312.973 266.874C310.808 269.115 311.387 274.733 317.719 278.038C324.082 281.364 347.805 292.072 358.599 297.547C358.03 298.217 357.41 298.784 356.739 299.221C355.398 300.082 354.147 300.224 353.222 299.738L353.202 299.748Z" fill="#37474F"/>
<path d="M361.273 290.368C361.425 293.542 359.382 297.517 356.699 299.231C355.398 300.062 354.198 300.214 353.273 299.788C352.603 299.474 350.001 298.328 349.299 298.014C348.283 297.557 347.602 296.412 347.521 294.708C347.358 291.433 349.472 287.336 352.237 285.562C353.66 284.649 354.981 284.528 355.957 285.075C356.628 285.46 359.697 287.225 359.697 287.225C360.602 287.712 361.191 288.797 361.273 290.358V290.368Z" fill="#8408F3"/>
<path d="M361.272 290.368C361.12 287.194 358.823 286.018 356.139 287.731C353.456 289.455 351.413 293.42 351.566 296.604C351.718 299.778 354.015 300.954 356.698 299.23C359.382 297.506 361.425 293.542 361.272 290.368Z" fill="#8408F3"/>
<path opacity="0.3" d="M361.272 290.368C361.12 287.194 358.823 286.018 356.139 287.731C353.456 289.455 351.413 293.42 351.566 296.604C351.718 299.778 354.015 300.954 356.698 299.23C359.382 297.506 361.425 293.542 361.272 290.368Z" fill="white"/>
<path d="M376.162 307.363C377.941 306.237 379.323 303.611 379.232 301.512C379.191 300.468 378.795 299.748 378.185 299.423L359.341 289.638C359.341 289.638 359.341 289.638 359.331 289.638C358.721 289.324 357.898 289.405 357.013 289.973C355.235 291.098 353.852 293.724 353.944 295.823C353.984 296.878 354.391 297.598 355.001 297.922L373.835 307.707C374.445 308.032 375.278 307.951 376.173 307.383L376.162 307.363Z" fill="#37474F"/>
<path d="M373.825 307.687C374.435 308.012 375.268 307.931 376.162 307.363C376.833 306.937 377.443 306.298 377.951 305.558L354.391 293.329C354.066 294.161 353.893 295.012 353.934 295.803C353.974 296.858 354.381 297.578 354.991 297.902L373.825 307.687Z" fill="#263238"/>
<path d="M460.382 310.373C460.382 303.245 455.666 296.127 446.224 290.692C427.349 279.822 396.745 279.822 377.87 290.692C368.428 296.127 363.712 303.255 363.712 310.373V323.494C363.712 330.623 368.428 337.741 377.87 343.176C396.745 354.046 427.349 354.046 446.224 343.176C455.666 337.741 460.382 330.613 460.382 323.494V310.373ZM380.208 294.727C388.634 289.87 399.947 287.193 412.052 287.193C424.158 287.193 435.46 289.87 443.896 294.727C451.519 299.118 455.717 304.675 455.717 310.373C455.717 316.072 451.519 321.629 443.896 326.019C435.47 330.876 424.158 333.553 412.052 333.553C399.947 333.553 388.644 330.876 380.208 326.019C372.585 321.629 368.387 316.072 368.387 310.373C368.387 304.675 372.585 299.118 380.208 294.727Z" fill="#8408F3"/>
<path opacity="0.3" d="M460.382 310.373C460.382 303.245 455.666 296.127 446.224 290.692C427.349 279.822 396.745 279.822 377.87 290.692C368.428 296.127 363.712 303.255 363.712 310.373V323.494C363.712 330.623 368.428 337.741 377.87 343.176C396.745 354.046 427.349 354.046 446.224 343.176C455.666 337.741 460.382 330.613 460.382 323.494V310.373ZM380.208 294.727C388.634 289.87 399.947 287.193 412.052 287.193C424.158 287.193 435.46 289.87 443.896 294.727C451.519 299.118 455.717 304.675 455.717 310.373C455.717 316.072 451.519 321.629 443.896 326.019C435.47 330.876 424.158 333.553 412.052 333.553C399.947 333.553 388.644 330.876 380.208 326.019C372.585 321.629 368.387 316.072 368.387 310.373C368.387 304.675 372.585 299.118 380.208 294.727Z" fill="white"/>
<path opacity="0.4" d="M370.664 303.184C369.17 305.496 368.397 307.92 368.397 310.373C368.397 316.072 372.595 321.629 380.218 326.019C383.755 328.058 387.811 329.71 392.222 330.937V348.875C387.028 347.526 382.149 345.63 377.88 343.176C368.438 337.741 363.722 330.613 363.722 323.495V310.373C363.722 307.088 364.738 303.803 366.751 300.68L370.674 303.184H370.664Z" fill="#8408F3"/>
<path opacity="0.3" d="M460.383 310.373V323.494C460.383 330.623 455.667 337.741 446.224 343.176C443.653 344.656 440.858 345.934 437.91 347.009L437.839 328.929C439.983 328.067 442.016 327.104 443.897 326.019C451.52 321.628 455.717 316.072 455.717 310.373C455.717 308.477 455.24 306.601 454.345 304.776L457.994 301.724C459.58 304.532 460.393 307.453 460.393 310.373H460.383Z" fill="white"/>
<path d="M377.87 330.055C396.745 340.925 427.349 340.925 446.223 330.055C465.098 319.185 465.098 301.552 446.223 290.682C427.349 279.812 396.745 279.812 377.87 290.682C358.995 301.552 358.995 319.185 377.87 330.055ZM368.387 310.374C368.387 304.675 372.585 299.118 380.208 294.728C388.634 289.871 399.946 287.194 412.052 287.194C424.157 287.194 435.46 289.871 443.896 294.728C451.519 299.118 455.717 304.675 455.717 310.374C455.717 316.072 451.519 321.629 443.896 326.02C435.47 330.877 424.157 333.554 412.052 333.554C399.946 333.554 388.644 330.877 380.208 326.02C372.585 321.629 368.387 316.072 368.387 310.374Z" fill="#8408F3"/>
<g opacity="0.5">
<path d="M377.87 330.055C396.745 340.925 427.349 340.925 446.223 330.055C465.098 319.185 465.098 301.552 446.223 290.682C427.349 279.812 396.745 279.812 377.87 290.682C358.995 301.552 358.995 319.185 377.87 330.055ZM368.387 310.374C368.387 304.675 372.585 299.118 380.208 294.728C388.634 289.871 399.946 287.194 412.052 287.194C424.157 287.194 435.46 289.871 443.896 294.728C451.519 299.118 455.717 304.675 455.717 310.374C455.717 316.072 451.519 321.629 443.896 326.02C435.47 330.877 424.157 333.554 412.052 333.554C399.946 333.554 388.644 330.877 380.208 326.02C372.585 321.629 368.387 316.072 368.387 310.374Z" fill="white"/>
</g>
<path opacity="0.4" d="M454.782 297.223C457.242 299.849 459.234 303.002 460.108 306.541C460.992 310.07 460.606 313.882 459.163 317.219C457.74 320.585 455.361 323.444 452.668 325.858C451.296 327.044 449.852 328.149 448.338 329.133C447.576 329.62 446.803 330.106 446.01 330.532L443.601 331.79C442.809 332.236 441.975 332.57 441.142 332.925C440.308 333.28 439.475 333.645 438.641 333.98L436.07 334.862L434.789 335.298C434.362 335.44 433.915 335.541 433.478 335.663C426.516 337.62 419.279 338.543 412.052 338.594C404.825 338.553 397.589 337.63 390.626 335.663C390.189 335.541 389.752 335.44 389.315 335.298L388.034 334.862L385.463 333.98C384.619 333.645 383.796 333.28 382.963 332.925C382.129 332.57 381.285 332.236 380.503 331.79L378.094 330.532C377.301 330.106 376.529 329.62 375.766 329.133C374.252 328.139 372.809 327.044 371.437 325.858C368.743 323.444 366.365 320.575 364.942 317.219C363.498 313.882 363.112 310.07 363.996 306.541C364.86 303.002 366.863 299.849 369.322 297.223C371.802 294.596 374.76 292.477 377.881 290.692C374.791 292.528 371.884 294.698 369.465 297.354C367.066 300.001 365.155 303.154 364.362 306.632C363.539 310.1 363.946 313.791 365.389 317.036C366.812 320.301 369.16 323.079 371.833 325.432C374.547 327.754 377.586 329.67 380.808 331.222C381.59 331.658 382.424 331.992 383.247 332.337C384.07 332.682 384.894 333.037 385.727 333.371L388.268 334.233L389.539 334.659C389.966 334.791 390.403 334.893 390.83 335.014C397.731 336.931 404.907 337.823 412.073 337.843C419.238 337.823 426.414 336.931 433.315 335.014C433.742 334.893 434.179 334.791 434.606 334.659L435.877 334.233L438.418 333.371C439.251 333.047 440.064 332.682 440.898 332.337C441.721 331.992 442.555 331.658 443.337 331.222C446.559 329.67 449.608 327.754 452.312 325.432C454.975 323.079 457.333 320.301 458.756 317.036C460.199 313.791 460.606 310.1 459.783 306.632C458.99 303.154 457.079 300.001 454.68 297.354C452.261 294.708 449.344 292.538 446.264 290.692C449.385 292.477 452.343 294.596 454.823 297.223H454.782Z" fill="white"/>
<path d="M368.388 310.374C368.388 312.615 369.028 314.815 370.278 316.945C372.199 313.629 375.574 310.526 380.219 307.859C388.645 303.002 399.957 300.325 412.063 300.325C424.158 300.325 435.471 303.002 443.897 307.859C448.542 310.526 451.916 313.629 453.847 316.945C455.077 314.815 455.728 312.615 455.728 310.374C455.728 304.675 451.53 299.119 443.897 294.728C435.471 289.881 424.158 287.204 412.063 287.204C399.967 287.204 388.645 289.881 380.219 294.728C372.585 299.119 368.388 304.675 368.388 310.374Z" fill="#8408F3"/>
<path opacity="0.3" d="M368.388 310.374C368.388 312.615 369.028 314.815 370.278 316.945C372.199 313.629 375.574 310.526 380.219 307.859C388.645 303.002 399.957 300.325 412.063 300.325C424.158 300.325 435.471 303.002 443.897 307.859C448.542 310.526 451.916 313.629 453.847 316.945C455.077 314.815 455.728 312.615 455.728 310.374C455.728 304.675 451.53 299.119 443.897 294.728C435.471 289.881 424.158 287.204 412.063 287.204C399.967 287.204 388.645 289.881 380.219 294.728C372.585 299.119 368.388 304.675 368.388 310.374Z" fill="white"/>
<path opacity="0.4" d="M443.887 294.718C451.52 299.109 455.718 304.665 455.718 310.364C455.718 312.605 455.077 314.805 453.837 316.935C451.916 313.619 448.532 310.516 443.887 307.849C441.996 306.754 439.943 305.781 437.778 304.919C439.618 305.629 445.279 307.444 443.216 302.07C440.766 295.681 428.803 288.766 420.021 287.62C429.068 288.512 437.351 290.966 443.897 294.728L443.887 294.718Z" fill="#8408F3"/>
<path opacity="0.7" d="M380.208 300.67C388.634 295.813 399.947 293.136 412.052 293.136C424.157 293.136 435.46 295.813 443.896 300.67C450.188 304.29 454.131 308.711 455.331 313.345C454.142 317.979 450.188 322.4 443.896 326.02C435.47 330.877 424.157 333.554 412.052 333.554C399.947 333.554 388.644 330.877 380.208 326.02C373.916 322.4 369.973 317.979 368.773 313.345C369.963 308.711 373.916 304.29 380.208 300.67Z" fill="white"/>
<path d="M391.134 228.911L392.029 215.8L375.99 216.895C375.99 216.895 376.498 223.973 376.864 227.978C377.077 230.341 375.156 235.35 375.156 235.35C375.156 235.35 382.342 238.838 386.062 237.367C389.782 235.907 391.592 231.152 391.5 230.128C391.409 229.114 391.154 228.911 391.154 228.911H391.134Z" fill="#C8856A"/>
<path d="M355.864 250.711C355.631 250.711 355.326 253.155 356.637 254.159C358.151 255.315 362.542 257.181 368.275 256.359C374.007 255.538 377.087 253.804 379.343 251.959C381.6 250.113 384.771 247.507 387.363 246.909C389.772 246.361 392.364 245.276 393.126 244.567C393.888 243.857 393.705 240.754 393.705 240.754L355.864 250.701V250.711Z" fill="#263238"/>
<path d="M391.134 228.88C391.134 228.88 391.856 228.88 392.018 229.59C392.211 230.442 392.466 232.916 392.872 234.315C393.441 236.252 393.889 240.237 393.614 241.829C393.329 243.421 389.416 244.617 386.926 245.56C384.375 246.534 381.448 248.481 378.886 250.549C376.233 252.689 370.603 254.981 366.852 255.031C362.421 255.102 357.389 253.865 356.2 251.979C354.726 249.637 353.639 246.899 360.144 243.908C361.374 243.34 365.693 240.825 367.167 239.923C371.141 237.469 373.926 235.228 375.685 231C375.888 230.503 376.101 229.955 376.599 229.702C376.975 229.499 377.443 229.519 377.88 229.57C378.978 229.691 383.359 230.158 384.365 230.574C385.259 230.949 386.52 231.375 386.52 232.429C386.52 232.794 386.418 233.159 386.296 233.504C386.225 233.717 386.164 234.011 386.367 234.133C386.56 234.244 386.814 234.102 386.977 233.96C387.648 233.372 388.136 232.622 388.705 231.932C389.01 231.567 389.335 231.212 389.721 230.918C390.067 230.655 390.524 230.513 390.829 230.209C391.215 229.833 391.114 229.367 391.124 228.87L391.134 228.88Z" fill="#455A64"/>
<path d="M378.886 250.55C380.015 249.637 381.214 248.765 382.413 247.974C382.413 247.974 374.78 252.527 371.609 250.6C369.566 249.363 370.491 247.782 370.521 247.285C370.562 246.788 363.366 243.421 361.414 243.249C360.876 243.543 360.428 243.776 360.144 243.908C353.639 246.899 354.726 249.637 356.2 251.98C357.389 253.876 361.038 255.295 366.771 255.163C370.521 255.082 376.233 252.689 378.886 250.55Z" fill="#37474F"/>
<path d="M371.04 245.824C366.985 247.436 368.743 248.115 369.892 248.237C371.04 248.369 377.84 244.465 381.956 241.271C386.256 237.945 388.939 234.345 390.535 233.118C391.135 232.662 391.775 232.104 392.344 231.587C392.222 230.746 392.11 229.985 392.019 229.59C391.856 228.88 391.135 228.88 391.135 228.88C391.135 229.377 391.236 229.833 390.84 230.218C390.535 230.523 390.077 230.654 389.732 230.928C389.346 231.222 389.02 231.577 388.715 231.942C388.146 232.632 387.669 233.372 386.988 233.97C383.511 238.28 375.085 244.212 371.03 245.834L371.04 245.824Z" fill="#37474F"/>
<path d="M370.166 247.669C370.257 247.669 370.348 247.639 370.42 247.578C370.592 247.446 370.613 247.203 370.46 247.04C369.271 245.742 363.732 242.741 360.733 243.116C360.51 243.147 360.357 243.329 360.388 243.542C360.418 243.745 360.591 243.887 360.845 243.867C363.65 243.522 368.915 246.513 369.85 247.537C369.932 247.628 370.054 247.669 370.166 247.669Z" fill="#263238"/>
<path d="M373.693 245.54C373.784 245.54 373.876 245.51 373.947 245.449C374.12 245.317 374.14 245.074 373.988 244.911C372.809 243.624 367.269 240.612 364.261 240.987C364.037 241.018 363.885 241.2 363.915 241.413C363.946 241.616 364.139 241.768 364.372 241.738C367.178 241.393 372.443 244.384 373.378 245.408C373.459 245.499 373.581 245.54 373.693 245.54Z" fill="#263238"/>
<path d="M377.209 243.522C377.301 243.522 377.392 243.492 377.464 243.431C377.636 243.299 377.657 243.056 377.504 242.893C376.315 241.596 370.776 238.584 367.777 238.969C367.554 239 367.401 239.182 367.432 239.395C367.462 239.598 367.655 239.75 367.889 239.72C370.694 239.375 375.959 242.366 376.894 243.39C376.976 243.482 377.098 243.522 377.209 243.522Z" fill="#263238"/>
<path d="M380.461 241.241C380.553 241.241 380.644 241.211 380.716 241.15C380.888 241.018 380.909 240.774 380.756 240.622C379.577 239.324 374.017 236.323 371.029 236.698C370.806 236.729 370.653 236.911 370.684 237.124C370.714 237.327 370.907 237.479 371.141 237.449C373.936 237.104 379.211 240.095 380.146 241.119C380.228 241.21 380.35 241.251 380.461 241.251V241.241Z" fill="#263238"/>
<path d="M383.653 238.949C383.745 238.949 383.826 238.919 383.907 238.858C384.08 238.726 384.1 238.483 383.958 238.33C382.332 236.495 376.538 234.011 373.54 234.376C373.316 234.406 373.164 234.589 373.194 234.802C373.225 235.005 373.418 235.147 373.652 235.126C376.355 234.792 381.895 237.185 383.338 238.807C383.419 238.898 383.541 238.949 383.653 238.939V238.949Z" fill="#263238"/>
<path d="M418.912 235.015L415.375 222.604L431.2 219.846L431.983 231.882C431.983 231.882 433.65 236.161 432.725 237.753C431.8 239.345 421.108 241.484 420.152 240.46C419.197 239.436 418.912 235.015 418.912 235.015Z" fill="#C8856A"/>
<path d="M420.711 262.13C421.239 265.983 422.103 268.457 423.831 270.515C425.549 272.574 429.056 272.594 431.983 271.499C434.91 270.404 438.59 268.072 439.21 264.594C439.819 261.116 439.484 258.844 438.559 255.336L420.721 262.14L420.711 262.13Z" fill="#263238"/>
<path d="M431.993 231.882C433.223 231.791 433.03 237.084 434.107 242.215C435.266 247.711 437.319 249.749 438.315 254.241C439.464 259.372 439.322 261.765 437.472 265.233C435.622 268.7 427.989 273.142 424.045 269.126C420.833 265.851 420.416 261.755 420.315 256.482C420.203 251.026 420.183 247.183 419.634 243.107C419.115 239.213 417.896 235.766 418.932 235.178C419.054 235.746 419.187 236.465 419.319 237.013C419.42 237.439 419.695 239.548 420.376 239.467C420.406 238.96 420.355 238.493 420.284 237.986C420.223 237.55 420.223 237.054 420.528 236.668C420.833 236.283 422.002 235.776 422.49 235.624C423.679 235.239 426.322 234.478 427.541 234.204C428.151 234.062 428.761 233.951 429.371 233.87C429.869 233.799 430.459 233.758 430.936 233.839C431.231 233.89 431.516 234.032 431.638 234.275C431.729 234.458 431.729 234.661 431.739 234.863C431.77 235.228 431.841 235.583 431.973 235.918C432.034 236.07 432.166 236.242 432.339 236.171C432.481 236.121 432.522 235.958 432.512 235.827C432.471 235.188 432.349 234.742 432.258 234.012C432.217 233.677 432.125 233.221 432.095 232.876C432.064 232.541 432.034 232.207 431.993 231.872V231.882Z" fill="#455A64"/>
<path d="M437.929 252.78C438.102 253.52 439.179 258.428 437.705 259.554C436.109 260.771 434.91 256.968 434.91 256.968C434.91 256.968 430.407 256.745 424.878 259.767C425.224 260.537 424.543 263.346 422.937 263.001C421.341 262.667 420.325 257.009 420.314 256.928C420.436 261.987 420.914 265.932 424.035 269.116C427.978 273.131 435.622 268.7 437.461 265.222C439.311 261.754 439.453 259.361 438.305 254.23C438.193 253.713 438.061 253.237 437.919 252.78H437.929Z" fill="#37474F"/>
<path d="M434.494 257.373C434.656 259.269 436.719 258.316 436.628 255.629C436.526 252.942 434.422 246.818 434.107 242.214C433.609 235.887 433.233 231.79 431.993 231.881C431.993 231.942 432.003 232.013 432.014 232.074L432.359 234.7C432.42 235.086 432.481 235.42 432.512 235.826C432.816 239.689 433.03 247.203 433.66 250.691C434.29 254.169 434.331 255.477 434.494 257.363V257.373Z" fill="#37474F"/>
<path d="M425.539 259.625C425 257.82 424.573 256.614 423.902 253.136C423.232 249.688 421.006 242.813 419.898 239.112C419.552 238.504 419.39 237.317 419.318 237.013C419.196 236.496 419.074 235.837 418.963 235.289C418.953 235.249 418.942 235.218 418.932 235.178C418.19 235.614 418.515 238.605 418.942 240.156C419.379 241.698 419.898 243.351 420.447 245.571C421.819 249.931 422.083 256.522 422.967 259.027C423.841 261.532 426.088 261.43 425.549 259.625H425.539Z" fill="#37474F"/>
<path d="M424.766 259.939C424.827 259.929 424.878 259.899 424.929 259.868C424.97 259.838 429.787 256.918 434.819 257.374C435.062 257.394 435.306 257.232 435.357 257.009C435.408 256.786 435.245 256.583 435.001 256.563C429.615 256.076 424.644 259.098 424.461 259.219C424.248 259.351 424.177 259.605 424.309 259.787C424.411 259.919 424.593 259.98 424.776 259.939H424.766Z" fill="#263238"/>
<path d="M423.455 255.975C423.455 255.975 423.557 255.944 423.607 255.914C423.658 255.884 429.025 252.821 434.625 253.156C434.869 253.166 435.103 253.004 435.154 252.771C435.194 252.547 435.022 252.355 434.778 252.335C428.852 251.98 423.384 255.123 423.17 255.245C422.947 255.377 422.876 255.63 422.998 255.813C423.089 255.955 423.282 256.015 423.465 255.975H423.455Z" fill="#263238"/>
<path d="M434.035 249.283C434.208 249.242 434.351 249.121 434.401 248.958C434.462 248.735 434.32 248.522 434.076 248.492C428.466 247.64 422.703 251.169 422.479 251.301C422.265 251.432 422.194 251.686 422.326 251.868C422.459 252.051 422.743 252.081 422.946 251.95C422.997 251.919 428.608 248.492 433.832 249.293C433.893 249.293 433.964 249.293 434.025 249.293L434.035 249.283Z" fill="#263238"/>
<path d="M433.467 245.642C433.63 245.601 433.782 245.48 433.833 245.328C433.904 245.105 433.762 244.892 433.518 244.851C427.338 243.807 421.9 247.518 421.687 247.67C421.483 247.812 421.433 248.076 421.575 248.248C421.717 248.42 422.012 248.441 422.205 248.288C422.246 248.258 427.501 244.689 433.253 245.652C433.325 245.662 433.386 245.652 433.457 245.652L433.467 245.642Z" fill="#263238"/>
<path d="M432.796 241.556C432.958 241.515 433.101 241.404 433.162 241.241C433.233 241.018 433.101 240.805 432.857 240.765C427.063 239.7 421.178 243.553 420.955 243.705C420.741 243.847 420.69 244.101 420.823 244.283C420.965 244.456 421.239 244.486 421.453 244.344C421.504 244.314 427.195 240.592 432.582 241.576C432.654 241.586 432.725 241.586 432.786 241.576L432.796 241.556Z" fill="#263238"/>
<path d="M421.972 109.178C427.206 139.04 426.383 171.214 427.023 177.238C427.694 182.713 428.934 185.339 430.001 195.946C431.008 205.954 432.603 225.575 432.654 226.761C432.654 226.761 427.023 231.01 416.32 230.32C416.32 230.32 406.207 201.442 402.294 188.442C398.584 176.142 396.287 156.258 396.287 156.258L395.362 176.66C395.362 176.66 396.206 184.194 396.287 189.852C396.389 196.432 393.024 223.496 393.024 223.496C393.024 223.496 382.494 226.548 375.451 222.543C375.451 222.543 370.409 185.116 369.779 177.227C368.549 161.764 367.807 128.292 368.936 109.168H421.972V109.178Z" fill="#455A64"/>
<path d="M396.277 156.258L393.726 136.617C393.726 136.617 384.395 135.623 380.35 132.308C380.35 132.308 383.866 137.925 391.042 139.345L394.02 156.938L395.352 176.66L396.277 156.258Z" fill="#37474F"/>
<path d="M424.075 224.753C426.891 224.165 429.757 223.222 432.267 221.731C432.237 221.295 432.196 220.849 432.156 220.383C431.251 220.9 430.336 221.387 429.371 221.802C429.076 216.438 428.71 207.809 427.998 201.786C427.582 198.237 426.85 194.181 426.22 190.946C425.518 187.418 425.122 184.862 424.339 181.344C422.876 174.763 422.591 168.294 422.307 161.571C422.022 154.838 422.002 148.105 421.544 141.382C421.097 134.832 420.355 128.119 418.271 121.863C418.038 121.153 417.773 120.453 417.479 119.764C417.326 119.409 416.625 119.318 416.757 119.825C417.601 123.039 418.424 126.264 418.993 129.539C419.562 132.763 419.938 136.018 420.192 139.283C418.587 139.354 417.123 138.797 415.944 137.671C414.694 136.485 413.962 134.852 413.413 133.25C412.173 129.579 411.38 125.696 410.709 121.893C410.313 119.662 410.008 117.421 409.764 115.17C409.703 114.623 408.677 114.643 408.748 115.231C409.215 119.52 409.937 123.779 410.943 127.977C411.421 129.965 411.899 131.962 412.59 133.889C413.189 135.562 414.033 137.194 415.375 138.391C416.655 139.527 418.515 140.358 420.253 140.044C420.731 146.432 420.802 152.84 421.036 159.239C421.27 165.83 421.666 172.441 422.866 178.941C424.136 185.846 425.549 192.052 426.535 199.008C427.765 207.687 427.958 213.822 428.537 222.188C426.962 222.806 425.325 223.283 423.658 223.617C421.809 223.993 419.938 224.236 418.058 224.358C416.798 224.439 415.537 224.429 414.277 224.418C414.419 224.814 414.551 225.199 414.673 225.564C415.802 225.584 416.92 225.554 418.027 225.503C420.06 225.412 422.093 225.189 424.095 224.773L424.075 224.753Z" fill="#37474F"/>
<path d="M391.307 204.858C391.693 200.143 391.906 195.418 391.794 190.693C391.733 188.32 391.601 185.937 391.357 183.575C391.124 181.293 390.747 179.032 390.585 176.74C390.26 172.045 391.042 166.367 391.51 161.713C392.12 155.578 392.892 150.123 392.557 144.84C392.547 144.627 391.998 143.714 391.988 144.019C391.866 148.794 391.022 154.949 390.615 160.526C390.27 165.201 389.497 170.342 389.589 175.047C389.629 177.349 389.975 179.61 390.249 181.891C390.534 184.213 390.717 186.556 390.808 188.888C391.002 193.613 390.849 198.338 390.514 203.053C390.321 205.69 390.077 208.316 389.802 210.942C389.528 213.487 389.172 216.043 388.979 218.598C387.332 218.78 385.676 218.801 384.029 218.699C382.149 218.588 380.278 218.334 378.429 217.969C377.168 217.716 375.949 217.381 374.719 217.036C374.78 217.472 374.831 217.878 374.881 218.273C375.949 218.578 377.036 218.841 378.103 219.075C380.096 219.511 382.118 219.825 384.151 219.947C387.282 220.119 390.565 219.896 393.573 218.912C393.624 218.507 393.675 218.081 393.726 217.635C392.445 218 391.154 218.304 389.823 218.497C390.544 213.994 390.941 209.411 391.317 204.868L391.307 204.858Z" fill="#37474F"/>
<path d="M308.998 51.1668C309.74 50.9843 310.594 51.5318 311.478 52.343C311.102 51.6941 310.868 51.1364 310.95 50.8119C311.183 49.8486 312.19 49.2199 313.836 50.599C315.483 51.978 319.538 56.328 323.279 57.3724C323.95 57.555 325.383 57.9301 325.769 57.413C326.003 57.1189 325.921 56.5004 325.576 55.9326C325.24 55.385 324.946 54.8273 324.692 54.2392C324.397 53.5902 324.153 52.9007 324.143 52.1909C324.122 51.4811 324.366 50.7308 324.915 50.2745C325.21 50.0311 325.616 49.879 325.881 50.2238C326.917 51.5724 328.005 52.8804 329.042 54.2189C330.028 55.4864 331.115 56.7742 331.867 58.2039C332.731 59.8466 333.788 61.8036 335.028 63.2536C335.964 64.369 338.149 66.2855 341.188 68.79C344.938 71.8827 353.049 77.9363 353.049 77.9363C353.049 77.9363 355.58 75.2593 361.953 67.7659C370.227 58.0417 373.733 53.8032 381.417 54.0972C384.832 61.4791 379.161 74.8233 379.161 74.8233C379.161 74.8233 369.007 85.6934 358.111 95.4277C354.543 98.6218 350.031 98.6624 344.725 93.4403C336.746 85.592 333.148 79.0111 328.046 72.9373C327.192 71.9233 325.464 70.5848 322.212 69.6722C320.941 69.3173 319.538 68.8205 318.705 68.5365C317.699 68.2019 315.971 67.3197 315.066 66.7823C313.155 65.6365 312.027 64.582 309.588 61.7123C309.283 61.3575 308.978 60.1914 309.191 59.7756C309.364 59.4309 309.72 59.3193 310.106 59.4004C310.655 59.512 311.001 59.9074 312.007 60.4854C311.021 59.5221 309.628 58.1025 309.11 56.4598C309.029 56.2165 308.978 55.8413 309.049 55.5878C309.11 55.3546 309.405 54.7158 309.811 54.6752C309.811 54.6752 309.384 53.8944 308.998 53.2353C308.683 52.6878 308.073 51.4 308.998 51.1668Z" fill="#C8856A"/>
<path d="M353.039 77.9364C355.814 80.2281 358.07 83.9697 357.897 86.3222C358.975 82.7123 356.962 78.3522 354.452 76.5371L353.039 77.9364Z" fill="#F0997A"/>
<path d="M381.926 53.1445C373.175 53.5907 369.739 57.8698 366.802 61.2565C363.864 64.6432 352.653 77.6528 352.653 77.6528C352.653 77.6528 357.014 80.9787 357.847 86.069C358.833 92.1428 357.349 95.0429 356.81 96.7261C356.81 96.7261 360.185 94.3331 361.791 92.5586C363.397 90.7841 377.423 77.6427 377.423 77.6427L381.936 53.1445H381.926Z" fill="#455A64"/>
<path d="M351.931 77.1044L352.409 77.4694C352.409 77.4694 357.176 81.7181 357.277 87.6601C357.379 93.6021 355.865 96.9382 355.865 96.9382C355.865 96.9382 355.051 97.2829 354.675 97.3742C355.458 98.1854 357.216 98.155 358.711 96.3298C360.205 94.5046 361.546 93.5818 363.132 92.7808C364.717 91.9797 366.649 90.7224 364.931 85.0136C363.213 79.3048 358.121 74.5897 355.224 74.2652C353.771 74.103 353.933 75.2792 353.385 75.8471C352.785 76.4757 352.297 76.3033 351.921 77.1044H351.931Z" fill="#37474F"/>
<path d="M330.028 67.0356C330.049 66.8328 330.059 66.63 330.028 66.4272C329.978 66.0419 329.845 65.6464 329.683 65.2915C329.358 64.5817 328.849 63.9531 328.24 63.4663C326.918 62.4118 324.926 62.0366 323.351 62.6957C323.31 62.716 323.229 62.858 323.32 62.858C324.936 62.858 326.542 62.9492 327.863 63.9835C328.961 64.8454 329.48 66.265 329.622 67.6237C329.632 67.7556 329.774 67.7353 329.815 67.6339C329.906 67.4209 329.998 67.279 330.028 67.0356Z" fill="#AF6152"/>
<path d="M319.864 58.6094C318.36 57.7982 316.947 56.7233 315.575 55.7093C314.264 54.7359 313.014 53.6509 311.764 52.6065C311.743 52.5964 311.723 52.6268 311.733 52.6471C312.861 54.0362 314.183 55.1821 315.626 56.2468C316.957 57.2202 318.38 57.9097 319.844 58.6499C319.854 58.6499 319.875 58.6296 319.864 58.6195V58.6094Z" fill="#AF6152"/>
<path d="M319.234 61.4385C317.729 60.6274 316.317 59.5525 314.945 58.5385C314.416 58.1431 313.908 57.7375 313.4 57.3217C312.902 56.9161 312.383 56.5207 311.926 56.0644C311.784 55.9224 311.641 55.7804 311.509 55.6385C311.326 55.456 311.174 55.2633 310.96 55.1214C310.747 54.9693 310.503 54.8577 310.249 54.7969C310.228 54.7969 310.188 54.7969 310.198 54.8273C310.503 54.9591 310.777 55.1619 311.011 55.3951C311.174 55.5472 311.316 55.7196 311.448 55.892C311.57 56.0441 311.712 56.1759 311.844 56.328C312.271 56.7843 312.708 57.2102 313.176 57.6158C313.755 58.1329 314.375 58.6095 314.995 59.0759C316.327 60.0494 317.75 60.7389 319.213 61.4791C319.224 61.4791 319.244 61.4588 319.234 61.4487V61.4385Z" fill="#AF6152"/>
<path d="M311.997 60.4854C312.851 61.1242 313.694 61.7123 314.609 62.199C315.504 62.7263 316.459 63.142 317.384 63.6896C316.347 63.4462 315.361 63.0406 314.426 62.5438C313.512 62.0063 312.627 61.3574 312.007 60.4955L311.997 60.4854Z" fill="#AF6152"/>
<path d="M335.018 63.2535C334.073 62.3105 333.351 61.4689 332.66 60.0594C332.406 59.451 331.999 58.8325 331.684 58.2748C331.369 57.7171 330.902 57.1188 330.515 56.6017C329.753 55.5471 328.92 54.523 328.147 53.4481C327.365 52.3834 326.592 51.3187 325.86 50.2236C326.765 51.1869 327.629 52.1908 328.483 53.1946C329.336 54.1985 330.17 55.2125 330.963 56.2873C331.349 56.8349 331.715 57.3926 332.03 57.9908C332.345 58.5992 332.691 59.1569 332.955 59.7958C333.229 60.4244 333.321 60.5968 333.697 61.3472C334.073 62.0975 334.632 62.7161 335.008 63.2636L335.018 63.2535Z" fill="#AF6152"/>
<path d="M405.384 52.6062C408.241 53.1943 416.128 56.5304 419.411 58.3556C419.411 58.3556 424.95 67.3193 423.009 85.7031C422.694 88.6436 421.515 94.6262 421.515 99.5948C421.515 103.701 422.318 113.973 422.541 118.364C422.541 118.364 412.916 125.391 392.72 123.85C376.864 122.643 369.495 115.748 369.495 115.748C369.495 115.748 369.495 93.1052 369.922 81.4341C370.471 66.1126 377.819 57.1286 381.245 54.4517L391.653 52.7279L405.374 52.5859L405.384 52.6062Z" fill="#F0F0F0"/>
<path d="M381.255 54.4722L391.663 52.7484L405.384 52.6064C408.24 53.1946 416.128 56.5306 419.411 58.3558C419.411 58.3558 422.45 63.2838 423.232 73.3123C419.157 73.4238 415.071 73.4136 411.005 73.3528C397.914 73.1601 384.619 72.4808 372.016 69.1954C374.587 61.2356 378.856 56.3278 381.245 54.4722H381.255Z" fill="#455A64"/>
<path d="M405.384 52.6064C406.665 52.8701 408.952 53.6813 411.381 54.6649C410.06 56.6827 408.179 58.3254 406.065 59.5118C403.27 61.0936 399.977 61.7121 396.775 61.6919C395.403 61.6919 393.462 61.337 392.191 60.8198C388.756 59.4306 387.983 56.3785 388.542 53.2655L391.673 52.7484L405.394 52.6064H405.384Z" fill="#37474F"/>
<path d="M391.623 51.8867L381.926 53.1441C381.926 53.1441 371.925 58.2749 369.76 72.3796C367.585 86.4843 367.442 129.893 367.442 129.893C368.825 130.755 375.99 131.932 377.728 132.175C377.728 132.175 377.922 105.679 378.826 90.1752C379.924 71.4771 382.16 60.0088 391.47 53.2353L391.623 51.8867Z" fill="#8408F3"/>
<path d="M401.278 81.1101C400.943 99.0882 401.278 135.764 401.278 135.764C401.278 135.764 417.327 135.085 425.581 128.474C424.767 118.993 422.979 105.274 422.887 98.7942C422.816 93.8966 424.036 85.7643 426.079 75.6041C428.152 65.2816 420.407 55.527 420.407 55.527C416.88 54.513 413.892 53.6511 408.474 52.1605L408.291 54.5535C408.291 54.5535 401.614 63.1421 401.278 81.1202V81.1101ZM367.401 129.893C368.784 130.755 375.949 131.932 377.687 132.175C377.687 132.175 377.881 105.679 378.785 90.1752C379.883 71.4771 382.119 60.0088 391.429 53.2353L391.592 51.8867L381.895 53.1441C381.895 53.1441 371.894 58.2749 369.729 72.3796C367.554 86.4843 367.412 129.893 367.412 129.893H367.401Z" fill="#8408F3"/>
<path opacity="0.15" d="M407.722 82.9959C407.814 80.4203 407.865 77.8245 408.159 75.2591C408.18 75.107 408.464 74.9346 408.474 75.1678C408.566 77.4696 408.434 79.7815 408.373 82.0934C408.312 84.3546 408.261 86.6158 408.21 88.877C408.119 93.3386 408.068 97.7901 408.058 102.252C408.027 111.205 408.19 122.045 408.515 130.988C408.566 132.296 408.627 133.604 408.678 134.912C408.495 134.943 408.312 134.973 408.129 135.004C408.088 134.284 408.047 133.564 408.017 132.844C407.824 128.372 407.671 123.911 407.57 119.439C407.356 110.435 407.336 99.5341 407.519 90.54C407.57 88.0253 407.631 85.5207 407.722 83.006V82.9959Z" fill="black"/>
<path opacity="0.15" d="M372.89 128.494C372.931 124.022 373.002 119.55 373.134 115.079C373.388 106.074 373.836 95.194 374.476 86.21C374.659 83.7055 374.852 81.2009 375.066 78.6963C375.289 76.1208 375.472 73.5351 375.899 70.99C375.919 70.8379 376.224 70.6858 376.224 70.919C376.194 73.2207 375.94 75.5327 375.757 77.8243C375.584 80.0754 375.411 82.3366 375.238 84.5876C374.913 89.0391 374.639 93.4804 374.395 97.942C373.907 106.875 373.592 117.725 373.46 126.668C373.439 128.26 373.429 129.852 373.409 131.444C373.226 131.414 373.053 131.373 372.87 131.343C372.87 130.39 372.87 129.437 372.87 128.484L372.89 128.494Z" fill="black"/>
<path d="M405.303 85.0242C405.303 84.4868 404.866 84.0508 404.327 84.0508C403.789 84.0508 403.352 84.4868 403.352 85.0242C403.352 85.5616 403.789 85.9977 404.327 85.9977C404.866 85.9977 405.303 85.5616 405.303 85.0242ZM403.352 93.9778C403.352 94.5152 403.789 94.9512 404.327 94.9512C404.866 94.9512 405.303 94.5152 405.303 93.9778C405.303 93.4404 404.866 93.0044 404.327 93.0044C403.789 93.0044 403.352 93.4404 403.352 93.9778ZM403.352 102.942C403.352 103.479 403.789 103.915 404.327 103.915C404.866 103.915 405.303 103.479 405.303 102.942C405.303 102.404 404.866 101.968 404.327 101.968C403.789 101.968 403.352 102.404 403.352 102.942ZM403.352 111.895C403.352 112.433 403.789 112.869 404.327 112.869C404.866 112.869 405.303 112.433 405.303 111.895C405.303 111.358 404.866 110.922 404.327 110.922C403.789 110.922 403.352 111.358 403.352 111.895ZM403.352 120.859C403.352 121.396 403.789 121.832 404.327 121.832C404.866 121.832 405.303 121.396 405.303 120.859C405.303 120.321 404.866 119.885 404.327 119.885C403.789 119.885 403.352 120.321 403.352 120.859Z" fill="#FAFAFA"/>
<path opacity="0.15" d="M375.329 69.6317L379.527 65.3627L377.657 62.9393C380.035 57.5752 386.997 52.485 386.997 52.485L391.622 51.8867L391.47 53.2353C384.507 58.3053 381.499 65.9914 379.964 77.3786L375.329 69.6317Z" fill="white"/>
<path opacity="0.15" d="M401.37 79.3356C402.082 62.5641 408.322 54.5434 408.322 54.5434L408.515 52.1504C409.918 52.5357 411.077 52.8602 412.175 53.1745L411.473 65.8698L406.076 67.3908L410.436 73.495L401.38 79.3356H401.37Z" fill="white"/>
<path opacity="0.15" d="M378.287 66.3365C376.122 65.9309 373.967 65.505 371.822 65.0183C371.914 64.8054 372.005 64.5924 372.097 64.3896C374.333 64.8865 376.569 65.3428 378.815 65.7585C378.632 65.9411 378.459 66.1439 378.276 66.3365H378.287Z" fill="black"/>
<path opacity="0.15" d="M407.255 68.6789C409.765 68.7397 412.266 68.7499 414.776 68.7093C418.567 68.6485 422.349 68.395 426.13 68.1719C426.16 68.324 426.18 68.4862 426.201 68.6383C422.816 68.9932 419.411 69.1757 416.016 69.2771C413.252 69.3582 410.477 69.3684 407.712 69.3278C407.56 69.1149 407.418 68.8918 407.255 68.689V68.6789Z" fill="black"/>
<path d="M410.232 73.475C408.433 74.6918 404.063 77.4499 402.315 78.7072C404.286 77.5411 408.84 74.8439 410.761 73.6474L410.913 73.5561C410.161 72.4914 409.44 71.4064 408.667 70.3519C408.667 70.3519 407.01 68.0603 406.665 67.5837C408.322 67.1679 409.978 66.7319 411.625 66.2858L411.879 66.2148V66.0323C412.082 62.1689 412.214 58.1535 412.153 54.3003C411.655 58.0724 411.34 62.0168 411.086 65.8193C409.226 66.2858 407.356 66.7623 405.516 67.2693L405.73 67.5533C407.041 69.2973 408.86 71.7411 410.232 73.475ZM375.044 69.6421L375.105 69.7333C376.142 71.376 378.043 74.4383 379.161 76.0505C378.348 74.3876 376.62 71.3152 375.715 69.6826C377.138 68.2732 378.541 66.8536 379.913 65.4137L380.065 65.2515L379.913 65.0892L377.951 63.0207C378.368 62.1487 378.886 61.307 379.456 60.4654C381.326 57.8392 383.663 55.3853 386.215 53.043C382.301 55.9531 378.856 59.2993 377.006 63.1018L377.118 63.2235L379.059 65.2515C377.728 66.6711 376.416 68.0907 375.126 69.5305L375.034 69.6319L375.044 69.6421Z" fill="#8408F3"/>
<path opacity="0.3" d="M410.232 73.475C408.433 74.6918 404.063 77.4499 402.315 78.7072C404.286 77.5411 408.84 74.8439 410.761 73.6474L410.913 73.5561C410.161 72.4914 409.44 71.4064 408.667 70.3519C408.667 70.3519 407.01 68.0603 406.665 67.5837C408.322 67.1679 409.978 66.7319 411.625 66.2858L411.879 66.2148V66.0323C412.082 62.1689 412.214 58.1535 412.153 54.3003C411.655 58.0724 411.34 62.0168 411.086 65.8193C409.226 66.2858 407.356 66.7623 405.516 67.2693L405.73 67.5533C407.041 69.2973 408.86 71.7411 410.232 73.475ZM375.044 69.6421L375.105 69.7333C376.142 71.376 378.043 74.4383 379.161 76.0505C378.348 74.3876 376.62 71.3152 375.715 69.6826C377.138 68.2732 378.541 66.8536 379.913 65.4137L380.065 65.2515L379.913 65.0892L377.951 63.0207C378.368 62.1487 378.886 61.307 379.456 60.4654C381.326 57.8392 383.663 55.3853 386.215 53.043C382.301 55.9531 378.856 59.2993 377.006 63.1018L377.118 63.2235L379.059 65.2515C377.728 66.6711 376.416 68.0907 375.126 69.5305L375.034 69.6319L375.044 69.6421Z" fill="black"/>
<path d="M418.984 23.6369C418.262 22.2477 416.93 21.5379 415.955 21.183C416.473 18.4756 414.4 15.3931 411.96 14.0546C410.73 13.3752 409.277 12.9798 408.352 11.9455C407.62 11.114 407.336 9.92765 407.62 8.8731C406.157 9.1266 404.917 10.3333 404.673 11.763C404.012 10.7186 403.28 9.69443 402.315 8.91366C401.349 8.13288 400.109 7.59546 398.859 7.66644C397.598 7.73742 396.358 8.49792 395.962 9.65387C394.356 9.18744 392.638 9.09618 391.002 9.40038C390.118 9.56262 388.928 9.85667 388.217 10.3941C387.333 11.0633 387.018 11.8745 387.231 12.7263C387.516 13.8315 387.556 14.592 387.14 14.9976C386.56 15.5553 386.062 15.8393 385.147 15.9204C384.111 16.0116 383.44 15.9812 382.657 15.4438C382.24 16.7823 383.399 18.3641 384.842 18.4148C383.796 19.3071 383.308 20.7774 383.633 22.1057C383.958 23.4239 385.066 24.5393 386.418 24.8942C387.394 25.1477 388.461 25.4418 389.457 25.5736C391.236 25.8068 393.025 25.6345 394.803 25.5736C396.633 25.5128 398.066 25.8068 399.855 26.3037C400.922 26.5978 402.01 26.9425 402.874 27.632C403.605 28.2201 404.114 29.0111 404.612 29.7918C406.157 32.195 407.031 34.9632 408.942 37.1535L408.128 41.4021L407.132 47.5266C407.132 47.5266 408.779 47.334 409.755 46.0056C410.73 44.6773 415.02 40.1954 417.459 35.3688C419.675 30.9782 420.213 25.9995 418.994 23.6369H418.984Z" fill="#37474F"/>
<path d="M413.8 43.9679C410.395 45.0935 409.277 42.3759 409.277 42.3759L408.311 54.5439C402.274 63.1324 385.97 59.9079 391.378 53.1851L391.794 49.6159C391.794 49.6159 390.717 49.5043 389.07 48.9771C384.73 47.5879 383.948 44.7994 383.663 41.6154C383.165 35.9675 384.497 30.137 385.93 24.7121C386.428 22.8261 387.261 20.9603 388.583 19.5103C389.243 18.7904 390.026 18.182 390.92 17.7865C391.53 17.5128 393.156 16.7725 393.532 17.6344C393.644 17.8981 393.644 18.2023 393.675 18.4862C394.102 21.8831 398.188 21.011 400.464 20.4533C402.04 20.068 403.686 19.7233 405.313 19.5813C406.482 19.4799 408.016 19.5103 409.012 20.1998C409.155 20.2911 409.297 20.4026 409.358 20.5547C409.429 20.7271 409.388 20.9299 409.297 21.0922C409.205 21.2544 409.073 21.3862 408.941 21.518C407.955 22.5118 407.315 23.6271 406.898 24.9555C406.268 26.9531 405.831 29.8835 407.467 31.5262C407.65 31.7087 407.854 31.8709 407.996 32.0839C408.575 32.9356 407.894 34.1119 408.179 35.0954C408.25 35.3388 408.382 35.5619 408.596 35.6937C409.043 35.9675 409.612 35.7343 410.08 35.4909C412.59 34.1828 416.341 32.6314 417.56 36.4948C418.577 39.7193 416.94 42.9134 413.789 43.9578L413.8 43.9679Z" fill="#C8856A"/>
<path d="M391.805 49.6158C395.515 50.0924 398.727 50.0721 401.451 49.0581C403.697 48.2266 407.031 45.5193 408.057 42.6699C407.519 46.7158 405.283 50.0315 401.735 51.3294C398.188 52.6274 394.275 52.8302 391.521 52.1001L391.805 49.6158Z" fill="#AF6152"/>
<path d="M408.342 32.1748C408.25 33.1584 407.813 34.071 407.325 34.9329C406.756 35.9367 406.085 36.9102 405.181 37.6301C404.276 38.35 402.843 38.5224 401.725 38.2182C399.794 37.6808 398.605 36.9304 396.724 36.3626C394.6 35.7238 391.896 35.8759 389.711 36.2714C388.613 36.4742 387.526 36.7986 386.408 36.7682C385.29 36.7378 384.334 36.0483 383.857 35.0444C383.572 36.3829 383.338 38.857 383.328 40.5707C383.328 42.2843 383.47 44.4746 383.948 45.7421C384.477 47.1515 385.889 48.926 388.573 49.6967C390.524 50.2645 391.327 50.376 393.36 50.5586C394.509 50.66 395.555 50.7005 396.704 50.6194C400.617 50.3558 404.51 48.4697 406.716 45.2351C408.291 42.9232 408.931 40.1245 409.531 37.3969C409.856 35.957 410.171 34.5171 410.487 33.0671C409.765 32.7731 409.053 32.4689 408.332 32.1748H408.342Z" fill="#37474F"/>
<path d="M399.163 26.8825L402.151 28.5657C402.609 27.714 402.304 26.6391 401.48 26.1727C400.657 25.7063 399.62 26.0206 399.173 26.8825H399.163Z" fill="#263238"/>
<path d="M387.251 26.9024L390.625 26.1621C390.453 25.2191 389.558 24.6209 388.623 24.8237C387.688 25.0265 387.078 25.9593 387.251 26.9125V26.9024Z" fill="#263238"/>
<path d="M400.739 31.06C400.607 31.8205 399.885 32.3275 399.123 32.2058C398.36 32.074 397.852 31.354 397.974 30.5935C398.106 29.833 398.828 29.326 399.59 29.4477C400.353 29.5795 400.861 30.2995 400.739 31.06Z" fill="#263238"/>
<path d="M396.256 38.9482C396.429 40.2664 395.494 41.4832 394.162 41.6556C392.841 41.828 391.621 40.8951 391.448 39.5668L396.246 38.9482H396.256Z" fill="#AF6152"/>
<path d="M393.156 41.5644C393.471 41.6556 393.807 41.6962 394.152 41.6455C395.27 41.5035 396.094 40.6213 396.236 39.5566C394.915 39.6986 393.797 40.4591 393.156 41.5542V41.5644Z" fill="#F28F8F"/>
<path d="M390.3 30.0766C390.168 30.8371 389.446 31.3441 388.684 31.2224C387.922 31.1007 387.414 30.3706 387.536 29.6101C387.668 28.8496 388.389 28.3426 389.152 28.4643C389.914 28.586 390.422 29.3161 390.3 30.0766Z" fill="#263238"/>
<path d="M395.626 27.2568L393.756 37.0318L388.653 34.801C390.717 31.4345 393.044 28.9198 395.626 27.2568Z" fill="#AF6152"/>
<path d="M326.937 208.752C321.662 207.282 320.554 202.993 324.467 199.17C328.381 195.347 335.831 193.441 341.106 194.911C346.381 196.382 347.489 200.671 343.576 204.494C339.663 208.316 332.212 210.223 326.937 208.752Z" fill="#263238"/>
<path d="M345.72 201.208L343.81 201.695C343.159 200.914 342.133 200.285 340.74 199.9C336.451 198.704 330.393 200.255 327.212 203.368C326.185 204.372 325.585 205.416 325.392 206.41L323.481 206.897L326.561 209.797C327.212 210.375 328.086 210.841 329.214 211.155C333.503 212.352 339.561 210.801 342.742 207.688C343.576 206.876 344.125 206.035 344.409 205.224L345.71 201.198L345.72 201.208Z" fill="#263238"/>
<path d="M322.16 206.683C314.364 204.493 312.748 198.145 318.552 192.508C324.356 186.87 335.374 184.081 343.17 186.271C350.965 188.462 352.581 194.809 346.778 200.447C340.974 206.085 329.956 208.873 322.16 206.683Z" fill="#455A64"/>
<path d="M321.124 204.504C313.044 202.232 311.367 195.641 317.384 189.801C323.401 183.95 334.836 181.06 342.916 183.332C350.996 185.603 352.674 192.194 346.656 198.035C340.639 203.885 329.205 206.775 321.124 204.504Z" fill="#37474F"/>
<path d="M320.149 202.029C311.855 199.697 310.137 192.944 316.306 186.951C322.476 180.959 334.195 177.988 342.489 180.32C350.783 182.652 352.501 189.405 346.331 195.398C340.162 201.391 328.442 204.362 320.149 202.029Z" fill="#455A64"/>
<path d="M319.172 199.546C310.675 197.153 308.917 190.237 315.239 184.092C321.561 177.947 333.564 174.905 342.062 177.299C350.559 179.692 352.317 186.607 345.995 192.752C339.673 198.897 327.659 201.939 319.172 199.546Z" fill="#37474F"/>
<path d="M318.197 197.071C309.496 194.627 307.697 187.539 314.172 181.253C320.646 174.966 332.945 171.843 341.645 174.296C350.346 176.74 352.145 183.828 345.67 190.115C339.196 196.402 326.897 199.525 318.197 197.071Z" fill="#455A64"/>
<path d="M317.221 194.587C308.317 192.082 306.467 184.832 313.094 178.393C319.721 171.954 332.304 168.76 341.208 171.265C350.112 173.769 351.962 181.019 345.335 187.458C338.708 193.897 326.125 197.091 317.221 194.587Z" fill="#37474F"/>
<path d="M347.409 167.412C346.626 164.349 343.811 161.804 339.155 160.496C329.835 157.88 316.662 161.216 309.73 167.949C306.265 171.315 305.014 174.895 305.797 177.967C306.102 179.154 307.291 183.828 307.596 185.025C308.379 188.087 311.194 190.642 315.859 191.95C325.18 194.566 338.353 191.23 345.284 184.497C348.75 181.131 350.001 177.541 349.208 174.479C348.903 173.293 347.714 168.618 347.409 167.422V167.412Z" fill="#8408F3"/>
<path d="M290.53 30.9781C255.972 39.739 235.075 74.7828 243.847 109.259C256.46 158.813 299.546 156.653 304.628 176.629C305.441 179.812 308.358 182.459 313.186 183.818C322.852 186.535 336.523 183.078 343.719 176.081C347.317 172.583 348.618 168.871 347.805 165.688C342.723 145.712 381.611 127.105 368.997 77.5408C360.215 43.065 325.088 22.2172 290.53 30.968V30.9781Z" fill="#8408F3"/>
<g style="mix-blend-mode:screen" opacity="0.7">
<path d="M290.53 30.9781C255.972 39.739 235.075 74.7828 243.847 109.259C256.46 158.813 299.546 156.653 304.628 176.629C305.441 179.812 308.358 182.459 313.186 183.818C322.852 186.535 336.523 183.078 343.719 176.081C347.317 172.583 348.618 168.871 347.805 165.688C342.723 145.712 381.611 127.105 368.997 77.5408C360.215 43.065 325.088 22.2172 290.53 30.968V30.9781Z" fill="white"/>
</g>
<path opacity="0.25" d="M315.351 181.861C307.27 179.59 305.593 172.999 311.61 167.158C317.628 161.308 329.062 158.418 337.143 160.689C345.223 162.96 346.9 169.551 340.883 175.392C334.866 181.233 323.431 184.133 315.351 181.861Z" fill="#8408F3"/>
<path opacity="0.25" d="M343.343 172.289C342.754 173.323 341.94 174.368 340.894 175.392C334.876 181.232 323.442 184.132 315.361 181.861C313.949 181.466 312.729 180.938 311.723 180.299C312.302 179.255 313.125 178.221 314.172 177.197C320.189 171.346 331.624 168.446 339.704 170.727C341.117 171.123 342.337 171.65 343.343 172.289Z" fill="#8408F3"/>
<path opacity="0.25" d="M343.343 172.289C342.754 173.323 341.94 174.368 340.894 175.392C334.876 181.232 323.442 184.132 315.361 181.861C313.949 181.466 312.729 180.938 311.723 180.299C312.302 179.255 313.125 178.221 314.172 177.197C320.189 171.346 331.624 168.446 339.704 170.727C341.117 171.123 342.337 171.65 343.343 172.289Z" fill="#8408F3"/>
<path opacity="0.2" d="M328.788 48.1142C328.117 48.6314 327.487 49.2499 326.928 49.9699C324.935 52.5454 324.803 56.2465 326.053 59.2479C328.472 65.0581 335.262 67.3498 339.836 71.1928C344.837 75.3907 349.095 80.4709 352.328 86.1492C353.293 87.8426 354.706 90.692 356.058 92.0913C358.182 94.2916 361.374 93.9165 362.817 92.6084C364.921 90.7021 365.399 87.3458 365.144 84.8818C363.579 70.2396 357.999 60.4039 348.089 51.3489C342.692 46.4107 335.323 43.1254 328.798 48.1142H328.788Z" fill="white"/>
<path opacity="0.2" d="M342.972 105.037C355.974 83.2355 348.798 55.0466 326.944 42.0757C305.09 29.1049 276.834 36.264 263.833 58.066C250.831 79.868 258.007 108.057 279.861 121.028C301.715 133.999 329.971 126.839 342.972 105.037Z" fill="white"/>
<path opacity="0.2" d="M356.912 102.191C356.759 104.259 357.582 106.145 358.985 107.616C360.52 109.228 363.325 109.035 364.799 107.474C366.313 105.862 366.974 103.458 366.395 101.319C365.775 99.0374 363.671 96.9688 361.069 97.3643C358.64 97.7293 357.064 100.112 356.912 102.191Z" fill="white"/>
<path opacity="0.15" d="M312.088 168.02C308.683 160.466 305.441 156.765 294.403 154.25C283.365 151.735 264.541 148.419 252.263 129.863C269.633 158.701 300.39 159.959 304.638 176.639C305.451 179.823 308.368 182.469 313.196 183.828C315.189 184.386 317.364 184.67 319.6 184.731C317.445 179.945 314.203 172.725 312.088 168.03V168.02Z" fill="#8408F3"/>
<path opacity="0.15" d="M337.142 161.672C336.522 153.408 337.6 148.622 346.097 141.149C354.594 133.686 369.556 121.812 371.466 99.6562C369.993 133.27 343.566 149.007 347.815 165.698C348.628 168.882 347.327 172.593 343.729 176.091C342.245 177.531 340.476 178.819 338.535 179.934C338.138 174.702 337.539 166.813 337.142 161.672Z" fill="#8408F3"/>
<path d="M342.185 107.14C340.538 105.639 338.251 105.335 335.923 106.308C332.244 107.849 329.225 112.128 327.589 118.091C323.005 117.786 317.547 116.215 313.329 114.004C313.806 113.132 314.183 112.301 314.457 111.54C316.663 105.203 315.199 100.508 313.105 98.2265C311.53 96.5128 309.375 95.8436 307.2 96.4013C305.025 96.9489 303.449 98.5611 302.89 100.822C302.138 103.824 303.104 108.64 308.074 113.163C308.674 113.7 309.395 114.248 310.239 114.795C307.586 118.75 303.541 122.725 299.658 125.179C295.359 120.717 290.663 118.395 286.689 118.79C284.178 119.044 282.308 120.392 281.576 122.502C280.763 124.844 281.281 127.105 283.009 128.697C285.327 130.826 290.409 131.972 297.696 128.768C298.184 128.555 298.692 128.312 299.191 128.038C300.796 129.883 302.331 132.043 303.775 134.477C309.395 143.988 314.183 157.464 319.803 179.539L319.986 180.259L322.161 179.711L321.978 178.991C316.307 156.704 311.438 143.055 305.706 133.341C304.273 130.918 302.748 128.738 301.162 126.862C305.218 124.215 309.405 120.048 312.16 115.921C316.551 118.243 322.222 119.906 327.06 120.301C326.562 122.704 326.268 125.341 326.166 128.16C325.77 139.415 328.026 153.733 333.698 176.02L333.881 176.74L336.056 176.193L335.873 175.473C330.252 153.398 328.016 139.273 328.402 128.241C328.504 125.422 328.819 122.785 329.347 120.403C329.927 120.403 330.476 120.372 331.014 120.332C338.952 119.673 342.876 116.255 343.892 113.274C344.644 111.054 344.024 108.823 342.195 107.15L342.185 107.14ZM296.782 126.71C290.48 129.478 286.313 128.697 284.514 127.044C283.446 126.061 283.152 124.743 283.68 123.232C284.036 122.197 284.91 121.457 286.12 121.153C286.363 121.092 286.628 121.052 286.892 121.021C289.962 120.717 293.915 122.694 297.595 126.334C297.32 126.466 297.046 126.598 296.782 126.71ZM311.377 112.889C310.666 112.422 310.056 111.966 309.558 111.52C306.061 108.336 304.293 104.361 305.045 101.37C305.411 99.8996 306.346 98.9262 307.738 98.5814C309.131 98.2265 310.412 98.6321 311.438 99.7576C313.522 102.029 313.867 106.369 312.323 110.82C312.099 111.449 311.784 112.149 311.387 112.889H311.377ZM341.758 112.544C340.965 114.846 337.682 117.523 330.821 118.091C330.537 118.111 330.232 118.131 329.927 118.141C331.411 113.183 333.942 109.573 336.787 108.377C338.271 107.748 339.694 107.9 340.67 108.792C341.849 109.867 342.225 111.165 341.758 112.544Z" fill="#455A64"/>
<path d="M345.722 80.3698C346.413 80.2583 346.738 80.4408 347.033 80.5422C347.033 80.5422 347.114 80.3799 347.145 80.3394C347.399 80.025 347.754 79.7107 348.293 79.6499C348.69 79.5992 349.086 79.6701 349.452 79.8121C350.072 80.0453 350.651 80.4813 351.2 80.8565C351.718 81.2114 352.227 81.5765 352.725 81.9516C353.812 82.7527 354.91 83.5335 356.079 84.223C357.238 84.9024 358.782 85.8251 360.439 86.2206C360.815 86.3118 361.425 86.4234 361.852 86.2611C361.659 85.6426 360.978 85.166 360.521 84.7908C359.291 83.7768 357.502 82.2457 358.101 80.4611C358.193 80.1771 358.467 79.7208 358.762 79.6194C359.026 79.5282 359.382 79.731 359.606 79.8527C360.165 80.1467 360.632 80.5827 361.171 80.9072C362.065 81.4649 362.96 82.0226 363.844 82.6006C365.572 83.7261 367.269 84.9125 368.855 86.2408C370.105 87.2853 370.827 88.4514 372.443 88.8772C375.34 89.6276 393.859 90.7227 397.314 90.6416C397.314 90.6416 405.659 76.1617 409.826 69.5099C413.404 63.7504 415.386 58.9542 421.261 56.7031C429.911 62.4525 429.667 72.9068 420.428 86.6262C413.394 97.0298 413.099 97.8714 409.725 102.414C405.507 108.113 404.907 107.991 397.142 107.231C389.376 106.47 374.049 101.38 368.865 100.65C365.714 100.204 361.944 99.6763 357.919 98.0336C357.919 98.0539 357.908 98.064 357.908 98.064C357.217 97.8207 356.028 97.334 354.636 96.5937C354.087 96.2997 353.538 95.9955 353.009 95.6609C351.464 94.7077 350.001 93.856 349.147 93.0853C348.761 92.7406 348.08 91.7975 347.795 91.3717C347.206 90.4793 347.033 90.0028 346.911 89.2119C346.85 88.8265 347.114 88.3297 347.114 88.3297C346.088 86.6667 345.864 85.7338 345.783 85.0139C345.742 84.6286 345.915 84.081 346.159 83.8681C346.159 83.8681 345.864 83.4625 345.62 83.1279C345.01 82.2761 344.797 81.9618 344.614 81.5156C344.4 81.0086 345.254 80.4611 345.711 80.3901L345.722 80.3698Z" fill="#C8856A"/>
<path d="M357.146 89.5062C356.12 88.8369 355.073 88.2083 354.036 87.5593C353.518 87.245 352.999 86.9205 352.501 86.5859C352.013 86.2715 351.597 85.8355 351.149 85.4198C350.275 84.5781 349.421 83.7061 348.578 82.8341C348.161 82.3981 347.755 81.9418 347.368 81.4855C347.175 81.2522 347.013 81.019 347.053 80.7148C347.084 80.4309 347.256 80.1571 347.49 79.9746C347.226 80.1267 346.992 80.3802 346.931 80.7047C346.901 80.8669 346.911 81.0393 346.962 81.1914C347.023 81.3536 347.114 81.4753 347.185 81.6173C347.521 82.1446 347.917 82.611 348.293 83.0876C349.066 84.0407 349.909 84.933 350.783 85.7949C351.22 86.2208 351.668 86.6568 352.206 87.0117C352.725 87.3565 353.263 87.6506 353.802 87.9446C354.89 88.5125 355.987 89.0499 357.126 89.5163L357.146 89.5062Z" fill="#AF6152"/>
<path d="M346.159 83.8379C346.678 84.8924 347.237 85.9166 347.897 86.9002C348.233 87.3869 348.609 87.8533 349.046 88.2792C349.473 88.7051 349.991 89.06 350.489 89.354C351.495 89.9726 352.522 90.5303 353.569 91.0575C354.616 91.5848 355.673 92.0918 356.75 92.538C355.764 91.9093 354.758 91.311 353.752 90.7229C352.756 90.1145 351.739 89.5366 350.764 88.918C349.757 88.34 348.964 87.5694 348.243 86.6467C347.521 85.7543 346.881 84.7708 346.159 83.848V83.8379Z" fill="#AF6152"/>
<path d="M347.114 88.2992C347.429 89.0293 347.836 89.7289 348.375 90.3475C348.913 90.9559 349.543 91.4831 350.235 91.8989C350.905 92.3248 351.597 92.7202 352.288 93.0954C352.989 93.4706 353.69 93.8255 354.422 94.15C353.162 93.1867 351.83 92.3248 350.509 91.4629C349.859 91.037 349.249 90.5706 348.69 90.0331C348.131 89.5059 347.622 88.9076 347.114 88.2891V88.2992Z" fill="#AF6152"/>
<path d="M420.407 55.5166C427.563 58.3355 428.589 64.0443 428.579 68.1713C428.579 72.6836 427.604 75.8878 422.552 84.6183C417.511 93.3387 410.04 103.61 407.651 105.03C407.153 96.6747 397.315 90.611 397.315 90.611C397.315 90.611 397.274 90.1851 398.504 87.7211C399.734 85.2571 407.143 72.5112 409.827 67.8265C412.5 63.1419 417.257 57.0782 420.397 55.5267L420.407 55.5166Z" fill="#455A64"/>
<path d="M396.126 90.6415C397.792 91.5236 401.95 94.3223 404.216 99.1895C406.218 103.489 406.076 106.602 404.318 107.352C405.365 107.991 406.605 107.616 408.028 105.841C409.451 104.067 411.219 103.752 412.164 102.302C413.11 100.852 411.514 95.7621 407.713 92.203C403.433 88.2079 399.337 87.4575 398.524 87.7212C397.63 88.0051 397.518 88.6642 397.193 89.2016C396.827 89.7999 395.638 90.2967 396.126 90.6516V90.6415Z" fill="#37474F"/>
<path d="M286.861 18.7695C286.038 18.8811 285.255 18.3234 285.093 17.502L281.982 1.91691C281.81 1.05501 282.369 0.213392 283.243 0.0410122C284.107 -0.131367 284.95 0.426331 285.123 1.29837L288.233 16.8835C288.406 17.7454 287.847 18.587 286.973 18.7594C286.932 18.7594 286.902 18.7695 286.861 18.7797V18.7695Z" fill="#E0E0E0"/>
<path d="M235.36 63.821C235.126 63.8514 234.882 63.821 234.638 63.75L219.554 58.6395C218.721 58.3556 218.274 57.4531 218.558 56.6115C218.843 55.78 219.748 55.3338 220.591 55.6178L235.675 60.7283C236.508 61.0122 236.955 61.9147 236.671 62.7563C236.468 63.3546 235.949 63.75 235.36 63.8311V63.821Z" fill="#E0E0E0"/>
<path d="M255.057 34.4054C254.549 34.4764 254.01 34.2939 253.645 33.8781L243.145 21.9332C242.566 21.2741 242.627 20.2601 243.297 19.6822C243.958 19.1042 244.975 19.165 245.554 19.8343L256.053 31.7791C256.633 32.4382 256.572 33.4522 255.901 34.0302C255.657 34.2432 255.362 34.375 255.057 34.4155V34.4054Z" fill="#E0E0E0"/>
<g opacity="0.1">
<path d="M286.861 18.7695C286.038 18.8811 285.255 18.3234 285.093 17.502L281.982 1.91691C281.81 1.05501 282.369 0.213392 283.243 0.0410122C284.107 -0.131367 284.95 0.426331 285.123 1.29837L288.233 16.8835C288.406 17.7454 287.847 18.587 286.973 18.7594C286.932 18.7594 286.902 18.7695 286.861 18.7797V18.7695Z" fill="black"/>
<path d="M235.36 63.821C235.126 63.8514 234.882 63.821 234.638 63.75L219.554 58.6395C218.721 58.3556 218.274 57.4531 218.558 56.6115C218.843 55.78 219.748 55.3338 220.591 55.6178L235.675 60.7283C236.508 61.0122 236.955 61.9147 236.671 62.7563C236.468 63.3546 235.949 63.75 235.36 63.8311V63.821Z" fill="black"/>
<path d="M255.057 34.4054C254.549 34.4764 254.01 34.2939 253.645 33.8781L243.145 21.9332C242.566 21.2741 242.627 20.2601 243.297 19.6822C243.958 19.1042 244.975 19.165 245.554 19.8343L256.053 31.7791C256.633 32.4382 256.572 33.4522 255.901 34.0302C255.657 34.2432 255.362 34.375 255.057 34.4155V34.4054Z" fill="black"/>
</g>
</g>
<defs>
<clipPath id="clip0_2988_2463">
<rect width="490" height="447" fill="white"/>
</clipPath>
</defs>
</svg>
